<svg width="305" height="305" viewBox="0 0 305 305" fill="none" xmlns="http://www.w3.org/2000/svg">
<path d="M246.012 44.2864C246.012 44.2864 256.87 47.7634 256.443 60.5124C256.016 73.2614 243.084 81.3744 231.494 73.5664C219.904 65.7584 224.54 52.5214 226.858 49.9594C229.176 47.3974 235.276 41.1144 246.012 44.2864Z" fill="#9ACBD0"/>
<path d="M246.074 45.6283C246.135 45.6283 246.257 45.6893 246.318 45.7503C245.952 45.6283 246.379 45.8113 246.318 45.7503L246.745 45.9333C247.111 46.1163 247.477 46.2993 247.782 46.4823L248.392 46.8483L248.697 47.0313L248.88 47.1533C248.819 47.0923 248.697 47.0313 248.819 47.1533C249.307 47.5193 249.795 47.8243 250.222 48.2513C250.466 48.4343 250.71 48.6783 250.954 48.9223C251.198 49.1663 250.893 48.8613 251.076 49.0443L251.442 49.4713C252.418 50.5693 253.272 51.7893 253.821 53.1313C256.871 60.0243 254.309 69.1133 247.843 73.2613C244.732 75.2133 241.011 75.8843 237.473 75.0913C233.447 74.1763 229.848 71.7973 227.469 68.3813C224.358 63.6843 224.419 56.7913 227.225 51.9723C227.347 51.7893 227.408 51.6673 227.53 51.4843L227.652 51.3013C227.835 51.0573 227.591 51.3623 227.713 51.2403C228.018 50.8743 228.384 50.5083 228.75 50.1423C229.665 49.1663 230.702 48.3123 231.8 47.5803C234.911 45.5063 238.632 44.5913 242.353 45.0183C243.695 45.0183 244.915 45.2623 246.074 45.6283C246.562 45.8113 247.111 45.5063 247.233 45.0183C247.294 44.8963 247.294 44.7743 247.294 44.6523C247.233 43.8593 246.684 43.2493 245.952 43.0053C241.499 41.7243 236.619 41.6633 232.349 43.7983C229.726 45.0793 227.408 46.9093 225.578 49.2273C224.053 51.1183 223.321 53.8023 222.955 56.1813C222.345 59.9023 222.833 63.6843 224.358 67.1003C228.14 75.2743 238.571 80.4593 247.172 76.9823C255.59 73.6273 259.25 63.9893 257.176 55.5103C256.322 51.9723 254.309 48.8003 251.564 46.4213C249.978 45.0183 248.148 43.8593 246.135 43.1883L245.83 43.0663C245.342 42.8833 244.854 43.1273 244.671 43.6153C244.61 43.7373 244.61 43.9203 244.61 44.0423C244.793 44.7743 245.342 45.3843 246.074 45.6283Z" fill="#9ACBD0"/>
<path d="M238.51 83.204V88.0231C238.571 88.7551 239.059 89.4261 239.791 89.7311C240.096 89.8531 240.401 89.9141 240.706 89.7921C240.95 89.6701 241.133 89.4261 241.133 89.1211V84.3021C241.072 83.5701 240.584 82.899 239.852 82.594C239.547 82.472 239.242 82.4111 238.937 82.5331C238.693 82.7161 238.51 82.96 238.51 83.204Z" fill="#9ACBD0"/>
<path d="M221.492 80.4591C222.59 79.4221 223.505 78.2021 224.298 76.9211C224.42 76.6771 224.42 76.3721 224.237 76.1281C224.054 75.8231 223.749 75.6401 223.383 75.5791C223.017 75.4571 222.59 75.4571 222.224 75.5181C221.919 75.5791 221.614 75.7621 221.431 76.0061C220.943 76.7381 220.455 77.4701 219.906 78.1411L220.089 77.9581C219.723 78.3851 219.357 78.7511 218.991 79.1171C218.747 79.3001 218.686 79.6051 218.747 79.8491C218.869 80.1541 219.052 80.3981 219.357 80.5201C219.723 80.7031 220.089 80.7641 220.516 80.7641C220.882 80.7641 221.248 80.6421 221.492 80.4591Z" fill="#9ACBD0"/>
<path d="M254.369 76.982C255.284 78.263 256.504 79.3 257.846 80.093C257.968 80.093 258.029 80.093 258.151 80.093C258.273 80.093 258.456 80.093 258.578 80.093C258.944 80.032 259.371 80.032 259.737 79.91C260.042 79.849 260.347 79.788 260.652 79.666L260.774 79.605C260.835 79.544 260.835 79.544 260.774 79.544L260.53 79.422L260.591 79.483C259.371 78.69 258.273 77.714 257.419 76.555C257.358 76.433 256.992 76.494 256.931 76.494C256.565 76.494 256.199 76.555 255.833 76.616C255.467 76.677 255.101 76.738 254.796 76.799C254.796 76.799 254.369 76.921 254.369 76.982Z" fill="#9ACBD0"/>
<path d="M260.166 60.8171H266.083C266.388 60.7561 266.693 60.6951 266.998 60.5731C267.364 60.4511 267.73 60.2071 268.035 60.0241C268.157 59.9021 268.523 59.7191 268.584 59.5361C268.645 59.3531 268.462 59.4141 268.34 59.4141H262.423C262.118 59.4751 261.813 59.5361 261.569 59.6581C261.203 59.7801 260.837 59.9631 260.532 60.2071C260.41 60.3291 260.044 60.5121 259.983 60.6951C259.922 60.8781 260.044 60.8171 260.166 60.8171Z" fill="#9ACBD0"/>
<path d="M257.359 44.774C257.969 43.798 258.64 42.822 259.494 41.968C259.677 41.663 259.799 41.358 259.738 40.992C259.677 40.565 259.494 40.199 259.25 39.955C259.006 39.711 258.64 39.528 258.274 39.467C257.969 39.467 257.603 39.589 257.42 39.833C256.444 40.87 255.651 41.968 254.98 43.188C254.858 43.554 254.858 43.92 254.98 44.286C255.102 44.652 255.346 44.957 255.712 45.201C256.017 45.384 256.322 45.506 256.688 45.445L256.993 45.323C257.115 45.14 257.298 44.957 257.359 44.774Z" fill="#9ACBD0"/>
<path d="M242.11 38.3081V33.2451C242.11 32.4521 241.561 31.7201 240.768 31.5981C240.402 31.5371 240.036 31.5981 239.731 31.7811C239.426 31.9641 239.243 32.3301 239.182 32.6961V37.7591C239.182 38.5521 239.731 39.2841 240.524 39.4061C240.89 39.4671 241.256 39.4061 241.561 39.2231C241.866 39.0401 242.049 38.6741 242.11 38.3081Z" fill="#9ACBD0"/>
<path d="M225.456 43.9809C224.846 43.4929 224.236 43.0049 223.565 42.5169L222.711 41.9069L222.406 41.6629L222.284 41.5409L222.223 41.4799L222.345 41.6019L221.186 40.7479C220.881 40.5039 220.576 40.3209 220.332 40.0769C219.722 39.5889 218.868 39.5279 218.197 40.0159C217.648 40.4429 217.343 41.2969 217.953 41.7849C218.563 42.2729 219.173 42.7609 219.844 43.2489L220.698 43.8589L221.003 44.1029L221.125 44.2249L221.186 44.2859L221.064 44.1639C221.43 44.4689 221.857 44.7129 222.223 45.0179C222.589 45.3229 222.833 45.4449 223.077 45.6889C223.687 46.1769 224.541 46.2379 225.212 45.7499C225.761 45.3229 226.066 44.5299 225.456 43.9809Z" fill="#9ACBD0"/>
<path d="M216.611 59.17H213.256C213.073 59.109 212.89 59.17 212.768 59.231C212.585 59.292 212.463 59.353 212.341 59.475C212.097 59.719 211.975 60.085 211.975 60.451C211.975 60.878 212.158 61.244 212.402 61.549C212.646 61.854 212.951 62.037 213.317 62.098H216.733C216.916 62.159 217.099 62.098 217.221 62.037C217.404 61.976 217.526 61.915 217.648 61.793C217.892 61.549 218.014 61.183 218.014 60.817C218.014 60.39 217.831 60.024 217.587 59.719C217.282 59.414 216.977 59.231 216.611 59.17Z" fill="#9ACBD0"/>
<path d="M162.748 141.581C162.748 141.581 160.491 133.407 156.465 135.176C152.439 136.945 155.672 146.461 155.001 147.925C154.33 149.389 125.172 177.815 125.172 177.815C125.172 177.815 121.207 212.951 123.037 212.829C124.867 212.707 176.839 155.733 180.072 148.962C183.305 142.191 162.748 141.581 162.748 141.581Z" fill="white"/>
<path d="M163.968 141.642C163.541 140.056 162.871 138.592 162.078 137.189C160.858 135.237 158.722 132.858 156.099 133.773C153.476 134.688 153.171 137.494 153.233 139.812C153.293 142.13 153.842 144.326 153.964 146.644C153.964 146.766 154.025 147.315 153.964 146.888C153.964 147.071 153.781 147.254 153.964 146.949C153.903 147.01 153.903 147.071 153.842 147.193C153.781 147.315 153.66 147.376 153.599 147.498C153.416 147.742 153.721 147.315 153.537 147.559L153.294 147.803C152.379 148.84 151.403 149.816 150.487 150.792C147.438 153.903 144.388 156.953 141.277 160.003C135.848 165.432 130.357 170.8 124.867 176.107C124.44 176.412 124.197 176.778 124.014 177.266C123.892 178.181 123.831 179.096 123.709 179.95C123.282 183.915 122.855 187.941 122.489 191.906C122.062 196.481 121.696 201.056 121.452 205.692C121.391 207.278 121.33 208.864 121.391 210.389C121.452 211.548 121.512 212.89 122.427 213.683C123.83 214.964 125.295 213.012 126.271 212.097C128.284 210.145 130.235 208.071 132.187 206.058C138.409 199.531 144.57 192.821 150.609 186.111C157.197 178.852 163.664 171.532 170.008 164.151C172.387 161.345 174.765 158.539 177.083 155.672C178.486 154.025 179.768 152.256 180.927 150.426C181.72 149.145 181.842 147.559 181.171 146.217C180.256 144.448 178.487 143.411 176.718 142.679C172.997 141.154 168.788 140.666 164.823 140.361C164.03 140.3 163.237 140.239 162.383 140.239C160.736 140.178 161.895 142.923 163.176 142.984C167.324 143.045 171.472 143.655 175.498 144.814C176.108 144.997 176.718 145.241 177.328 145.485C177.511 145.546 177.206 145.424 177.511 145.607L177.877 145.79C178.121 145.912 178.364 146.095 178.608 146.278C178.303 146.034 178.791 146.461 178.913 146.583C178.791 146.339 179.157 146.827 178.913 146.583C178.974 146.644 179.219 147.01 179.036 146.766C178.853 146.522 179.097 146.888 179.097 146.888C179.036 146.705 179.28 147.071 179.097 146.888C179.158 147.071 179.158 147.193 179.097 146.949C179.097 147.071 179.097 147.193 179.097 147.315C179.097 147.315 179.158 147.132 179.097 147.376L179.036 147.742L178.974 147.925C178.974 147.864 179.035 147.742 178.974 147.925C178.913 147.986 178.914 148.108 178.853 148.169C178.792 148.23 178.67 148.535 178.548 148.657C178.243 149.145 177.938 149.572 177.633 150.06C175.254 153.415 172.57 156.526 169.947 159.698C166.043 164.334 162.017 168.909 157.991 173.484C153.538 178.547 149.023 183.549 144.509 188.49C140.422 192.943 136.335 197.396 132.187 201.788C129.503 204.655 126.759 207.522 123.892 210.267C123.343 210.816 122.671 211.243 122.122 211.792C122.549 211.365 123.404 212.036 123.709 212.463C123.709 212.524 123.953 212.951 123.831 212.768C123.709 212.585 123.77 212.28 123.831 212.707C123.77 211.975 123.709 211.243 123.709 210.572C123.648 204.96 124.258 199.531 124.746 193.919C125.173 189.1 125.66 184.342 126.209 179.584L126.271 178.791L125.966 179.279C127.918 177.388 129.808 175.558 131.699 173.667C135.725 169.763 139.691 165.798 143.717 161.833C147.133 158.417 150.549 155.062 153.904 151.585C154.697 150.853 155.368 150.06 155.978 149.206C156.404 148.413 156.161 147.254 156.039 146.4C155.856 144.936 155.611 143.533 155.489 142.069C155.367 140.788 155.367 139.263 155.794 138.104C155.977 137.555 156.344 137.128 156.771 136.823C157.014 136.701 157.259 136.579 157.503 136.518C157.564 136.518 157.686 136.457 157.808 136.457C157.869 136.457 158.235 136.518 158.113 136.457C158.235 136.457 158.356 136.518 158.478 136.579C158.234 136.518 158.601 136.64 158.662 136.701C158.967 136.884 158.661 136.64 158.783 136.823C158.905 137.006 159.027 137.067 159.149 137.189C158.966 137.006 159.211 137.25 159.272 137.372C159.333 137.494 159.455 137.616 159.577 137.738L159.821 138.104C159.638 137.86 159.943 138.287 159.943 138.348C160.248 138.897 160.553 139.507 160.797 140.117C160.919 140.422 160.797 140.056 160.858 140.239C160.919 140.361 160.918 140.483 160.979 140.605C161.04 140.727 161.101 141.032 161.223 141.215C161.345 141.398 161.346 141.581 161.407 141.764C161.59 142.496 162.2 143.045 162.993 143.167C163.908 142.984 164.09 142.252 163.968 141.642Z" fill="#000005"/>
<path d="M161.406 244.122C159.393 247.05 158.234 250.527 158.051 254.126C157.685 260.348 173.423 265.716 188.307 264.008C203.191 262.3 197.274 255.041 180.499 250.466C163.724 245.891 161.406 244.122 161.406 244.122Z" fill="#000005"/>
<path d="M159.941 243.878C158.294 246.013 157.379 248.819 156.891 251.442C156.586 253.028 156.281 254.675 157.013 256.2C157.684 257.42 158.66 258.457 159.819 259.25C163.113 261.629 167.2 262.91 171.104 263.764C176.167 264.862 181.352 265.228 186.537 264.862C188.855 264.74 191.112 264.374 193.308 263.825C194.711 263.52 196.053 262.91 197.212 261.995C199.042 260.348 198.127 258.396 196.602 256.871C193.918 254.309 190.075 252.784 186.659 251.564C181.901 249.856 176.96 248.758 172.08 247.233C170.494 246.745 168.969 246.257 167.383 245.708L165.736 245.098L165.065 244.854L164.76 244.732L164.577 244.671H164.638C163.906 244.366 163.174 244 162.381 243.634C162.381 243.634 162.686 243.817 162.564 243.756C161.954 243.39 161.222 243.268 160.49 243.39C160.124 243.451 159.331 243.878 159.88 244.305C160.307 244.61 160.734 244.854 161.222 245.037C162.93 245.769 164.638 246.379 166.407 246.989C170.128 248.27 173.91 249.368 177.692 250.405C182.084 251.625 186.476 252.845 190.502 255.041C191.783 255.712 192.942 256.505 193.979 257.481C194.65 258.03 195.016 258.823 195.138 259.677C195.138 261.873 191.6 262.544 189.892 262.849C185.317 263.642 180.62 263.703 176.045 263.093C172.019 262.544 167.932 261.629 164.272 259.738C162.259 258.701 159.453 256.871 159.392 254.309C159.453 252.235 159.819 250.161 160.612 248.209C161.039 246.989 161.649 245.769 162.381 244.671C162.503 244.488 162.564 244.366 162.686 244.183C163.052 243.695 161.954 243.329 161.649 243.268C161.283 243.39 160.368 243.329 159.941 243.878Z" fill="#000005"/>
<path d="M159.821 250.405C163.664 257.237 188.674 260.653 190.687 257.176C192.7 253.699 174.766 249.368 172.936 245.098L173.973 225.761L154.27 229.055L159.821 250.405Z" fill="white"/>
<path d="M158.356 250.954C159.637 253.211 162.138 254.553 164.456 255.59C167.567 256.932 170.861 257.908 174.216 258.518C177.449 259.189 180.743 259.555 184.037 259.616C186.233 259.616 188.978 259.616 190.869 258.396C191.723 257.847 192.394 256.932 192.15 255.834C191.906 254.858 190.93 254.187 190.198 253.638C187.758 251.869 184.769 250.771 182.085 249.49C180.621 248.819 179.157 248.148 177.754 247.355C176.656 246.806 175.68 246.135 174.765 245.281C174.582 245.098 174.46 244.915 174.277 244.732C174.399 244.854 174.216 244.427 174.216 244.793C174.216 244.61 174.216 244.427 174.216 244.244L174.338 241.499L175.192 225.883V225.517C175.253 224.785 174.277 224.663 173.728 224.724L156.526 227.591L154.086 228.018C153.354 228.14 152.378 228.75 152.622 229.604L157.441 248.331L158.356 250.954C158.722 252.235 161.528 251.198 161.223 249.856L156.404 231.129L155.733 228.506L154.269 230.092L171.532 227.225L173.972 226.798L172.508 226.005L171.776 239.364C171.654 241.255 171.471 243.268 171.471 245.159C171.471 245.891 172.081 246.562 172.63 247.05C173.606 247.904 174.704 248.636 175.863 249.246C178.669 250.771 181.597 251.991 184.464 253.394C185.684 253.943 186.904 254.614 188.063 255.346C188.246 255.468 188.368 255.529 188.49 255.651C188.673 255.773 188.856 255.956 189.039 256.139C189.1 256.2 189.161 256.261 189.222 256.383C189.283 256.505 189.344 256.627 189.283 256.444C189.344 256.566 189.527 257.054 189.405 256.688C189.405 256.749 189.405 256.81 189.405 256.871C189.344 257.115 189.527 256.688 189.405 256.871C189.283 257.054 189.527 256.81 189.405 256.871C189.283 256.932 189.344 256.932 189.466 256.81C189.161 257.115 189.649 256.688 189.405 256.871C189.161 257.054 189.1 256.932 189.466 256.871C189.405 256.871 189.283 256.932 189.222 256.993C189.161 257.054 188.551 257.176 188.978 257.054C188.734 257.115 188.49 257.176 188.246 257.176C188.002 257.176 187.758 257.237 187.514 257.298L187.148 257.359C187.453 257.359 187.087 257.359 186.965 257.359C184.098 257.481 181.231 257.359 178.425 256.871C175.131 256.383 171.898 255.59 168.726 254.553C166.347 253.699 163.724 252.601 162.016 250.893C161.833 250.71 161.711 250.527 161.528 250.344C161.345 250.161 161.345 250.161 161.284 250.039C161.284 249.978 161.223 249.978 161.223 249.917C161.101 249.795 161.345 250.1 161.223 249.856C160.796 249.307 160.064 249.124 159.454 249.429C159.027 249.673 157.99 250.344 158.356 250.954Z" fill="#000005"/>
<path d="M143.35 202.337C143.35 202.337 147.071 242.658 160.308 244.366C173.545 246.074 184.159 243.756 184.159 222.406C184.159 201.056 162.809 187.88 162.809 187.88L143.35 202.337Z" fill="white"/>
<path d="M142.374 201.666C142.984 207.766 143.96 213.744 145.302 219.722C146.278 224.48 147.742 229.055 149.572 233.569C151.219 237.412 153.354 241.438 156.831 244C158.234 245.037 159.942 245.708 161.711 245.83C164.09 246.135 166.53 246.257 168.909 246.135C173.179 245.891 177.388 244.549 180.255 241.255C184.098 236.863 184.952 230.519 185.074 224.907C185.257 218.319 183.671 211.853 180.56 206.058C176.351 198.372 170.312 191.784 162.992 186.965L162.626 186.721C162.504 186.66 162.138 186.477 161.955 186.599L144.936 199.226L142.496 201.056C141.703 201.666 143.35 204.167 144.082 203.618L161.101 190.991L163.541 189.161L162.87 189.039C163.358 189.344 163.785 189.649 164.273 190.015C164.761 190.381 165.31 190.747 165.798 191.174C166.53 191.784 166.835 191.967 167.628 192.638C171.166 195.627 174.338 199.043 176.961 202.825C180.255 207.583 182.329 213.073 182.939 218.807C183.244 222.223 183.061 225.7 182.512 229.055C182.146 231.678 181.353 234.179 180.072 236.497C177.998 240.035 174.46 242.475 170.434 243.085C168.238 243.451 166.042 243.573 163.846 243.39C161.894 243.268 159.759 243.268 157.99 242.536C157.319 242.231 156.77 241.865 156.221 241.438C156.465 241.621 155.977 241.255 155.916 241.194L155.55 240.828C155.489 240.767 155.001 240.279 155.245 240.523C155.123 240.34 154.94 240.157 154.818 239.974C154.574 239.669 154.269 239.303 154.025 238.937C154.269 239.242 153.842 238.632 153.781 238.571C153.659 238.388 153.537 238.144 153.354 237.961C153.11 237.534 152.866 237.168 152.622 236.741C152.378 236.375 152.744 237.046 152.561 236.619L152.378 236.253C152.256 236.009 152.134 235.765 152.012 235.521C150.121 231.434 148.657 227.225 147.681 222.833C146.095 216.428 144.997 209.901 144.326 203.313L144.265 202.947C144.143 202.215 143.716 201.544 143.106 201.117C142.679 200.873 142.313 201.056 142.374 201.666Z" fill="#000005"/>
<path d="M69.6623 236.192C69.6623 236.192 65.9413 156.77 92.7203 136.03C119.499 115.29 128.71 176.656 128.71 176.656C128.71 176.656 93.6353 240.767 69.6623 236.192Z" fill="#000005"/>
<path d="M71.0647 236.009C70.9427 233.813 70.9427 231.678 70.9427 229.482C70.8817 223.931 70.9427 218.38 71.1867 212.829C71.4917 205.387 72.0407 197.945 72.9557 190.564C73.8707 182.695 75.2737 174.887 77.2867 167.201C79.1777 160.064 81.5567 153.232 85.2777 146.888C85.7047 146.156 86.1317 145.485 86.6197 144.753C86.8637 144.387 87.0467 144.082 87.2907 143.716L87.5957 143.289C87.6567 143.228 88.0227 142.74 87.8397 142.923C88.7547 141.642 89.7917 140.483 90.8897 139.324C91.4387 138.775 91.9877 138.287 92.5367 137.738L92.7197 137.616L93.1467 137.25C93.5127 136.945 93.8177 136.701 94.1837 136.457C94.8547 135.969 95.5867 135.481 96.3187 135.054L96.8067 134.81L97.1117 134.688C97.1727 134.688 97.4167 134.566 97.2337 134.627C97.0507 134.688 97.5387 134.505 97.5997 134.444C97.7827 134.383 97.9657 134.261 98.1487 134.2C98.7587 133.895 99.4297 133.651 100.101 133.468C100.223 133.407 100.589 133.346 100.284 133.407L100.772 133.285C101.077 133.224 101.443 133.163 101.748 133.102C102.053 133.041 102.358 133.041 102.602 133.041H103.029C102.663 133.041 103.151 133.041 103.273 133.041C103.883 133.041 104.432 133.102 105.042 133.224L105.408 133.285C105.774 133.346 105.286 133.224 105.591 133.346C105.896 133.468 106.201 133.529 106.445 133.59C106.994 133.773 107.482 134.017 108.031 134.261L108.397 134.444C108.641 134.566 108.397 134.444 108.336 134.444L108.519 134.566C108.824 134.749 109.068 134.932 109.373 135.115C109.861 135.481 110.349 135.847 110.837 136.213C111.325 136.64 111.752 137.067 112.179 137.494C112.301 137.616 112.423 137.738 112.545 137.86L112.667 138.043C112.911 138.287 113.155 138.592 113.338 138.836C114.192 139.934 115.046 141.032 115.778 142.191C116.571 143.411 117.303 144.692 117.974 145.973C118.34 146.644 118.645 147.315 118.95 147.986C119.133 148.413 119.072 148.291 119.316 148.779C119.499 149.145 119.621 149.511 119.804 149.877C122.061 155.245 123.83 160.796 125.233 166.469C126.087 169.824 126.819 173.24 127.368 176.656C127.368 176.839 127.429 176.961 127.429 177.144L127.612 176.107C126.453 178.242 125.233 180.316 123.952 182.39C120.963 187.453 117.791 192.394 114.497 197.274C110.41 203.374 105.957 209.291 101.199 214.903C98.8197 217.709 96.3187 220.393 93.6957 222.955C91.3777 225.273 88.8767 227.469 86.1927 229.421C84.9727 230.336 83.6307 231.19 82.2887 231.922C81.9837 232.105 81.6787 232.288 81.3737 232.471C81.3127 232.532 80.7637 232.776 81.1297 232.593L80.6417 232.837C80.0317 233.142 79.3607 233.447 78.7507 233.691C78.1407 233.935 77.4697 234.179 76.8597 234.362L76.4327 234.484C76.3107 234.484 75.8227 234.606 76.2497 234.545C75.9447 234.606 75.6397 234.667 75.2737 234.728C74.6637 234.85 74.1147 234.911 73.5047 234.972H73.0167H72.8337C72.5287 234.972 72.2237 234.972 71.9187 234.972C71.3697 234.911 70.7597 234.85 70.2107 234.728C68.5637 234.423 67.5267 237.107 69.4177 237.473C73.5047 238.266 77.7137 237.107 81.3737 235.338C86.0097 233.081 90.0357 229.848 93.8177 226.432C97.9657 222.528 101.87 218.319 105.469 213.805C109.19 209.291 112.667 204.533 115.961 199.714C118.767 195.627 121.512 191.479 124.074 187.27C125.782 184.525 127.429 181.78 129.015 178.974C129.32 178.364 129.686 177.815 129.991 177.205C130.235 176.717 130.296 176.168 130.174 175.619C129.808 173.423 129.381 171.227 128.893 169.092C128.039 165.188 127.063 161.345 125.843 157.502C124.501 153.049 122.732 148.718 120.719 144.57C118.767 140.788 116.449 137.067 113.216 134.261C110.41 131.638 106.689 130.235 102.846 130.296C98.0877 130.54 93.6957 133.285 90.2797 136.396C86.6197 139.69 83.7527 143.899 81.4957 148.23C78.9337 153.232 76.8597 158.539 75.3347 163.968C73.6877 169.763 72.4067 175.619 71.4917 181.536C70.5157 187.514 69.7837 193.492 69.2957 199.531C68.8077 204.899 68.5027 210.267 68.3197 215.635C68.1977 219.844 68.1367 223.992 68.1367 228.201C68.1367 230.58 68.1977 232.959 68.2587 235.338L68.3197 236.253C68.2587 238.205 71.1867 237.595 71.0647 236.009Z" fill="#000005"/>
<path d="M206.485 250.344C206.485 250.344 204.655 254.614 205.936 260.775C207.217 266.936 223.931 268.461 237.9 263.398C251.869 258.335 244.183 252.662 226.676 252.113C209.169 251.564 206.485 250.344 206.485 250.344Z" fill="#000005"/>
<path d="M205.083 250.588C203.863 253.455 203.863 256.993 204.29 259.982C204.534 261.507 204.9 262.727 205.998 263.825C207.096 264.801 208.377 265.533 209.719 265.96C213.379 267.302 217.527 267.546 221.431 267.424C226.433 267.241 231.313 266.387 236.071 264.862C238.206 264.252 240.28 263.337 242.232 262.3C243.635 261.629 244.855 260.592 245.77 259.311C246.38 258.457 246.563 257.42 246.197 256.444C245.709 255.468 244.916 254.736 244.001 254.248C240.646 252.357 236.559 251.808 232.838 251.381C227.836 250.832 222.712 250.893 217.649 250.588C214.965 250.405 212.159 250.222 209.78 249.856C208.987 249.734 208.194 249.551 207.401 249.368C206.425 248.941 204.107 250.771 205.51 251.381C205.937 251.503 206.364 251.625 206.791 251.686C208.621 252.052 210.573 252.235 212.464 252.357C216.429 252.723 220.455 252.906 224.42 253.028C228.995 253.211 233.631 253.394 238.084 254.675C239.487 255.041 240.768 255.529 241.988 256.261C242.415 256.505 242.781 256.81 243.086 257.115C243.208 257.298 243.33 257.42 243.452 257.603C243.513 257.725 243.635 258.091 243.635 257.969C243.696 258.152 243.696 258.335 243.696 258.518C243.696 258.701 243.757 258.396 243.696 258.579C243.696 258.701 243.635 258.823 243.574 258.884C243.513 259.067 243.513 259.006 243.513 259.006L243.33 259.311C243.208 259.494 243.452 259.189 243.269 259.372C243.086 259.555 243.086 259.616 242.964 259.677L242.781 259.86C242.781 259.86 242.964 259.738 242.842 259.799C242.72 259.86 242.598 259.982 242.476 260.104L242.11 260.348C241.866 260.531 241.988 260.409 242.049 260.348L241.744 260.531C241.012 260.958 240.28 261.324 239.548 261.629C235.278 263.398 230.764 264.496 226.128 264.984C222.163 265.472 218.137 265.35 214.233 264.557C211.915 264.069 208.743 263.154 207.584 260.836C207.279 260.104 207.096 259.25 207.035 258.457C206.852 257.298 206.852 256.139 206.852 254.98C206.913 253.516 207.157 252.052 207.584 250.649C207.645 250.466 207.706 250.222 207.828 250.039C208.133 249.368 207.279 249.185 206.791 249.307C206.12 249.49 205.449 249.917 205.083 250.588Z" fill="#000005"/>
<path d="M206.608 256.81C212.22 262.544 237.291 260.043 238.328 256.261C239.365 252.479 220.76 252.357 217.832 248.636L213.684 229.665L195.506 237.351L206.608 256.81Z" fill="white"/>
<path d="M205.693 256.871C208.743 259.921 213.562 260.714 217.71 261.019C222.529 261.385 227.348 261.202 232.106 260.287C233.936 259.982 235.705 259.494 237.413 258.823C238.328 258.457 239.609 257.847 239.731 256.749C239.914 255.163 237.84 254.004 236.681 253.455C234.79 252.662 232.777 252.113 230.703 251.747C228.141 251.198 225.579 250.771 223.078 250.161C222.041 249.917 221.004 249.612 219.967 249.246C219.967 249.246 219.601 249.124 219.784 249.185C219.967 249.246 219.601 249.063 219.54 249.063C219.479 249.063 218.869 248.697 219.235 248.941C219.174 248.88 219.052 248.819 218.991 248.819C218.808 248.575 219.235 249.002 218.991 248.819C218.93 248.758 218.869 248.697 218.808 248.636C219.296 249.063 218.625 248.392 218.93 248.758L219.113 249.185L215.453 232.593L214.904 230.275C214.721 229.482 213.257 228.323 212.464 228.689L196.543 235.46L194.286 236.436C193.981 236.558 194.164 236.985 194.286 237.168L203.985 254.126L205.388 256.566C205.815 257.176 206.486 257.603 207.218 257.725C207.828 257.786 208.011 257.481 207.706 256.993L198.007 240.035L196.604 237.595V238.327L212.525 231.556L214.782 230.58L212.281 228.994L215.209 242.231C215.636 244.061 216.002 245.952 216.429 247.843C216.673 248.819 217.771 249.551 218.625 250.039C219.845 250.71 221.126 251.259 222.529 251.625C225.64 252.54 228.873 253.028 231.984 253.699C233.326 253.943 234.607 254.248 235.888 254.675C236.132 254.736 236.376 254.858 236.62 254.98C236.864 255.102 236.376 254.858 236.559 254.98L236.742 255.041L237.047 255.224C236.742 255.041 237.108 255.224 237.047 255.224C236.742 254.98 237.352 255.407 237.047 255.224C237.23 255.346 236.803 254.98 236.986 255.224C237.108 255.346 236.803 255.041 236.925 255.102C237.047 255.163 236.864 255.041 236.925 255.041C237.047 255.102 236.986 255.529 236.925 255.59C236.803 255.834 236.62 256.078 236.376 256.261C235.644 256.749 234.851 257.115 234.058 257.42C231.374 258.274 228.507 258.823 225.701 259.006C222.407 259.311 219.052 259.372 215.697 259.128C214.172 259.006 212.647 258.762 211.122 258.457C210.512 258.335 209.902 258.152 209.292 257.908L208.865 257.725C208.56 257.603 208.926 257.786 208.682 257.664L208.316 257.481C208.194 257.42 207.767 257.176 208.133 257.42C208.011 257.359 207.401 256.932 207.767 257.176L207.462 256.932C207.279 256.81 207.645 257.115 207.401 256.871C206.974 256.444 206.181 255.834 205.51 255.956C204.839 256.078 205.388 256.566 205.693 256.871Z" fill="#000005"/>
<path d="M155.732 204.899C155.732 204.899 181.779 253.089 197.273 253.455C212.767 253.821 228.932 245.342 220.514 223.565C212.096 201.788 168.664 165.005 143.776 169.336C121.633 173.24 71.6133 236.192 71.6133 236.192C71.6133 236.192 78.3233 266.814 106.81 258.396C135.297 249.978 155.732 204.899 155.732 204.899Z" fill="white"/>
<path d="M154.392 205.631C156.1 208.803 157.93 211.975 159.821 215.086C163.847 221.796 168.117 228.384 172.814 234.606C175.254 237.9 177.877 241.072 180.622 244.122C182.94 246.806 185.563 249.185 188.43 251.32C190.687 252.906 193.249 254.37 195.994 254.675C198.007 254.858 200.081 254.797 202.094 254.553C204.351 254.309 206.547 253.882 208.743 253.272C212.769 252.052 216.673 249.978 219.54 246.867C222.468 243.634 224.176 239.425 224.237 235.033C224.481 225.944 219.845 217.465 214.538 210.389C208.621 202.642 201.85 195.627 194.286 189.527C186.539 183.122 178.121 177.388 169.032 173.118C161.712 169.702 153.233 166.896 144.998 167.933C139.081 168.665 133.713 172.02 128.955 175.436C122.428 180.194 116.328 185.44 110.594 191.113C104.372 197.091 98.4553 203.313 92.6603 209.718C87.7193 215.147 82.9003 220.698 78.2033 226.31C75.7023 229.299 73.2013 232.288 70.7613 235.338C70.6393 235.521 70.5173 235.643 70.3953 235.826C70.0903 236.253 70.0903 236.863 70.2733 237.351C70.7003 238.998 71.2493 240.584 71.9203 242.17C74.1163 247.66 77.5323 252.845 82.2903 256.444C85.2793 258.701 88.6953 260.226 92.3553 260.897C97.0523 261.751 101.871 261.202 106.446 259.921C115.352 257.42 123.099 251.747 129.626 245.342C136.031 238.876 141.765 231.739 146.584 224.053C150 218.746 153.111 213.317 155.917 207.644C156.344 206.851 156.71 205.997 157.076 205.204C157.32 204.655 157.076 204.045 156.527 203.801C156.405 203.74 156.344 203.74 156.222 203.74C155.429 203.679 154.697 204.106 154.331 204.838C153.782 206.058 153.172 207.278 152.562 208.498L151.586 210.328C151.403 210.633 151.22 210.999 151.037 211.304L150.732 211.914L150.61 212.097C150.427 212.402 150.61 212.097 150.488 212.28C149.573 213.988 148.597 215.696 147.621 217.343C142.436 226.127 136.458 234.667 129.382 241.987C121.94 249.673 113.034 256.566 102.298 258.335C97.5403 259.128 92.7823 258.762 88.3903 256.81C86.5603 256.017 84.9133 254.919 83.3883 253.638C82.6563 253.028 81.9853 252.357 81.3143 251.686C80.7043 251.076 80.0943 250.405 79.5453 249.673C77.5323 247.05 75.8853 244.183 74.6653 241.194L74.2993 240.279L74.1163 239.791C74.1163 239.73 74.0553 239.547 74.1163 239.852L73.9943 239.547C73.8113 239.059 73.6283 238.51 73.5063 238.022C73.3233 237.412 73.1403 236.802 72.9573 236.131C72.9573 236.07 72.8963 235.948 72.8963 235.887L72.6523 236.863C73.4453 235.887 74.2993 234.85 75.0923 233.874C77.2883 231.19 79.4233 228.567 81.6803 225.944C83.1443 224.175 84.6693 222.467 86.1943 220.698C87.0483 219.722 87.9023 218.746 88.7563 217.77C89.6713 216.733 90.2813 216.001 91.2573 214.964C95.1003 210.694 98.9433 206.485 102.908 202.276C106.995 198.006 111.204 193.797 115.535 189.771C119.5 186.05 123.648 182.451 127.979 179.157C128.467 178.791 128.955 178.425 129.443 178.059L129.565 177.998L129.931 177.754C130.175 177.571 130.48 177.388 130.724 177.205C131.639 176.534 132.615 175.924 133.591 175.314C135.299 174.216 137.129 173.179 139.02 172.325C139.081 172.325 139.386 172.142 139.203 172.264L139.325 172.203L139.996 171.898C140.423 171.715 140.789 171.593 141.216 171.471C141.643 171.349 142.009 171.227 142.375 171.105L142.924 170.983L143.229 170.922C144.327 170.739 145.425 170.556 146.584 170.556C147.804 170.495 149.024 170.495 150.183 170.617C155.917 171.105 161.346 172.996 166.531 175.314C172.631 178.12 178.426 181.536 183.855 185.44C189.528 189.466 194.957 193.98 199.959 198.799C204.595 203.191 208.804 207.949 212.586 213.012C215.88 217.526 218.747 222.345 220.272 227.774C221.309 231.129 221.614 234.667 221.126 238.083C220.699 240.706 219.601 243.207 217.893 245.22C217.527 245.647 217.1 246.074 216.673 246.501C216.185 246.989 215.697 247.416 215.148 247.782L214.904 247.965L214.538 248.209C214.233 248.392 213.989 248.575 213.684 248.758C213.074 249.124 212.403 249.49 211.793 249.795C211.366 249.978 210.695 250.283 210.085 250.527C209.475 250.771 208.743 251.015 208.011 251.198C206.669 251.564 205.266 251.869 203.924 252.052C201.545 252.418 198.861 252.723 196.482 252.296C196.299 252.235 196.116 252.235 195.872 252.174C195.811 252.174 196.116 252.235 195.811 252.174L195.445 252.052C195.018 251.93 194.652 251.747 194.225 251.564C193.798 251.381 193.371 251.198 193.005 250.954L192.395 250.649C192.029 250.405 192.212 250.527 191.907 250.344C187.881 247.721 184.465 244.183 181.293 240.584C177.633 236.314 174.217 231.8 171.106 227.164C168.178 222.894 165.372 218.502 162.688 214.049C160.98 211.243 159.333 208.437 157.747 205.57C157.503 205.204 157.32 204.777 157.076 204.411C156.283 202.703 153.66 204.228 154.392 205.631Z" fill="#000005"/>
<path d="M160.98 127.856L166.714 150.853C168.239 157.075 169.703 163.419 172.631 169.214C174.156 172.325 176.23 175.131 178.792 177.51C179.341 177.998 181.903 176.839 181.537 176.473C176.962 172.203 174.339 166.408 172.448 160.552C170.313 153.842 168.849 146.888 167.141 139.995L163.908 127.002C163.786 126.514 160.858 127.307 160.98 127.856Z" fill="#9ACBD0"/>
<path d="M166.897 117.608C166.897 117.608 175.803 101.26 182.086 103.151C188.369 105.042 191.419 109.251 187.759 114.253C184.099 119.255 164.457 124.867 166.897 117.608Z" fill="white"/>
<path d="M168.177 117.669C169.58 115.168 171.166 112.728 172.874 110.41C174.155 108.641 175.68 107.055 177.327 105.591C177.51 105.469 177.693 105.286 177.876 105.164L178.181 104.92C178.547 104.676 177.998 105.042 178.242 104.859C178.486 104.676 178.669 104.615 178.852 104.493L179.096 104.371C179.462 104.188 179.035 104.371 179.279 104.31C179.523 104.249 179.645 104.188 179.828 104.127C180.194 104.005 179.523 104.188 179.889 104.127L180.133 104.066L180.438 104.005C180.133 104.005 180.377 104.005 180.499 104.005H180.743C181.048 104.005 180.804 104.005 180.987 104.005C183.488 104.615 186.477 106.14 187.575 108.58C188.551 110.715 187.575 113.094 186.05 114.619C186.355 114.375 185.928 114.741 185.806 114.802L185.318 115.168L184.769 115.534C184.708 115.595 184.464 115.717 184.708 115.595C184.586 115.656 184.464 115.778 184.342 115.839C183.427 116.388 182.512 116.876 181.597 117.303C181.292 117.425 180.804 117.669 180.255 117.852C179.706 118.035 179.157 118.279 178.608 118.462C177.51 118.828 176.412 119.133 175.497 119.377C174.399 119.621 173.24 119.804 172.142 119.926C171.959 119.926 171.776 119.926 171.593 119.926C171.349 119.926 171.105 119.926 170.8 119.926C170.495 119.926 170.312 119.865 170.068 119.865H169.885C170.129 119.926 169.763 119.804 169.702 119.804C169.519 119.743 169.336 119.682 169.153 119.621L168.97 119.56C168.726 119.438 168.97 119.56 168.848 119.499C168.726 119.438 168.604 119.316 168.482 119.255C168.421 119.194 168.36 119.133 168.299 119.133C168.421 119.255 168.36 119.194 168.299 119.072C167.994 118.523 167.994 117.913 168.238 117.364C168.482 116.693 167.689 116.449 167.14 116.51C166.408 116.632 165.737 117.12 165.493 117.791C164.944 119.438 165.432 120.963 167.079 121.634C168.909 122.427 171.105 122.183 172.996 121.878C175.497 121.451 177.937 120.78 180.316 119.865C182.634 119.011 184.83 117.852 186.843 116.388C188.917 114.802 190.564 112.423 190.747 109.739C190.93 106.628 188.368 104.371 185.806 103.09C184.586 102.48 183.122 101.809 181.658 101.809C180.499 101.809 179.34 102.114 178.303 102.663C176.107 103.761 174.216 105.591 172.63 107.421C169.946 110.532 167.567 113.887 165.615 117.486C165.371 117.791 165.432 118.279 165.798 118.523C165.92 118.645 166.103 118.645 166.225 118.645C167.018 118.767 167.75 118.34 168.177 117.669Z" fill="#9ACBD0"/>
<path d="M155.734 127.612C155.734 127.612 142.68 140.971 137.19 137.433C131.7 133.895 129.87 129.076 134.75 125.233C139.63 121.39 160.004 121.329 155.734 127.612Z" fill="white"/>
<path d="M154.757 126.453C152.744 128.527 150.609 130.418 148.291 132.126C146.522 133.529 144.631 134.688 142.557 135.664C141.703 136.091 140.849 136.335 139.934 136.518C139.751 136.518 139.568 136.579 139.324 136.579C139.202 136.579 139.08 136.579 138.958 136.579C138.775 136.579 138.592 136.518 138.409 136.518L138.104 136.457C137.86 136.396 138.287 136.518 137.982 136.396C137.921 136.335 137.372 136.091 137.677 136.274C137.311 136.03 136.945 135.786 136.579 135.542C135.908 135.054 135.298 134.505 134.749 133.895C133.834 133.041 133.285 131.882 133.163 130.662C133.041 128.466 134.993 126.575 136.884 125.721C138.592 124.989 140.422 124.501 142.252 124.318C144.387 124.013 146.583 123.891 148.718 124.013C149.877 124.074 150.975 124.196 152.073 124.379C152.927 124.501 153.72 124.745 154.452 125.111L154.696 125.233C154.452 125.05 154.94 125.355 154.696 125.233C154.818 125.355 154.94 125.477 155.123 125.538C155.367 125.66 154.94 125.294 155.062 125.477C155.123 125.538 155.184 125.599 155.184 125.66C154.818 125.111 155.306 126.148 155.062 125.416C155.184 125.843 155.062 125.172 155.123 125.538C155.184 125.904 155.184 125.294 155.123 125.721C155.001 126.026 155.123 125.782 155.123 125.721C155.062 125.843 155.062 125.904 155.001 126.026C154.94 126.148 154.94 126.148 154.879 126.27C154.757 126.575 154.879 126.27 154.757 126.453C154.391 127.063 154.452 127.917 155.001 128.466C155.367 128.893 156.343 129.381 156.77 128.71C157.868 127.063 157.99 125.111 156.526 123.647C155.062 122.183 153.11 121.695 151.219 121.39C148.84 121.024 146.4 120.963 143.96 121.146C141.642 121.268 139.385 121.695 137.128 122.366C134.688 123.159 132.553 124.562 131.333 126.941C129.747 130.174 131.333 133.773 133.651 136.152C135.664 138.104 137.921 139.812 140.849 139.385C143.167 139.019 145.363 137.799 147.315 136.579C150.731 134.322 153.903 131.699 156.77 128.771C157.685 127.734 155.916 125.294 154.757 126.453Z" fill="#9ACBD0"/>
<path d="M158.355 121.39C158.355 121.39 149.388 108.519 141.275 109.434C133.162 110.349 130.539 119.377 142.007 122.732C153.475 126.087 158.416 124.196 158.355 121.39Z" fill="white"/>
<path d="M159.15 121.207C157.137 118.401 154.88 115.839 152.257 113.521C148.658 110.288 143.839 107.177 138.776 108.519C134.933 109.556 131.944 113.094 133.53 117.12C134.506 119.499 136.641 121.329 138.898 122.549C142.07 124.135 145.791 124.989 149.268 125.477C151.769 125.843 154.575 126.087 157.015 125.172C158.418 124.623 159.516 123.647 159.516 122.061C159.394 121.329 158.967 120.719 158.296 120.353C157.869 120.109 157.137 119.987 157.137 120.658C157.137 120.719 157.076 121.085 157.137 120.841C157.137 120.963 157.076 121.024 157.076 121.146C157.015 121.329 156.954 121.512 156.832 121.634C156.527 122.061 156.1 122.366 155.612 122.549C153.965 123.281 152.013 123.281 150.244 123.159C147.072 122.915 144.022 122.305 141.033 121.268C139.813 120.902 138.654 120.353 137.556 119.621C137.251 119.377 136.885 119.133 136.641 118.828C136.58 118.767 136.214 118.34 136.397 118.584C136.336 118.523 136.275 118.401 136.153 118.279C136.092 118.218 135.848 117.852 136.031 118.096C135.665 117.547 135.482 116.876 135.482 116.205C135.482 115.473 135.665 114.802 135.97 114.192C136.824 112.728 138.166 111.569 139.813 111.081C141.704 110.41 143.778 110.41 145.669 111.081C147.682 111.874 149.512 113.033 151.098 114.436C152.806 115.9 154.331 117.486 155.795 119.255C155.856 119.316 156.344 119.926 156.1 119.621L156.466 120.048C156.649 120.292 156.893 120.597 157.076 120.841C157.259 121.085 157.442 121.329 157.564 121.512C157.869 121.939 158.601 122.732 159.272 122.488C159.943 122.244 159.394 121.512 159.15 121.207Z" fill="#9ACBD0"/>
<path d="M162.87 119.682C162.87 119.682 159.149 99.7961 154.269 98.2711C149.389 96.7461 145.912 99.4301 145.973 105.103C146.034 110.776 156.038 121.024 159.515 121.146C162.992 121.268 162.87 119.682 162.87 119.682Z" fill="white"/>
<path d="M164.335 119.316C163.786 116.205 163.054 113.155 162.2 110.166C161.529 107.787 160.797 105.469 159.821 103.212C159.089 101.443 158.174 99.5521 156.771 98.2101C155.002 96.6241 151.891 96.5021 149.756 97.2341C146.706 98.2711 144.998 100.894 144.632 104.005C144.327 106.567 145.181 108.885 146.523 111.081C148.048 113.582 149.878 115.9 152.013 117.913C153.721 119.621 155.917 121.634 158.296 122.183C159.882 122.488 161.59 122.244 162.993 121.451C163.603 121.024 164.396 120.17 164.335 119.316C164.274 117.974 161.407 118.889 161.468 120.048C161.468 120.353 161.407 119.865 161.468 120.109C161.468 120.17 161.529 120.048 161.529 119.987C161.346 120.17 161.773 119.926 161.529 119.987C161.834 119.926 161.224 120.048 161.163 120.048C160.858 120.109 160.492 120.109 160.187 120.109C160.126 120.109 159.76 120.048 159.882 120.048C160.004 120.048 159.577 119.926 159.455 119.926C157.625 119.194 156.039 117.73 154.575 116.327C152.684 114.558 151.037 112.545 149.634 110.41C148.536 108.641 147.438 106.628 147.438 104.554C147.377 103.273 147.682 101.992 148.231 100.772C148.475 100.345 148.78 99.9181 149.146 99.6131C149.146 99.6131 149.39 99.4301 149.573 99.3081C149.756 99.1861 149.268 99.4301 149.695 99.2471C149.756 99.2471 150.122 99.0641 149.878 99.1861C150.915 98.8811 152.013 98.8811 153.05 99.2471C153.233 99.3081 153.416 99.3691 153.599 99.4301C153.66 99.4301 153.721 99.4911 153.782 99.5521C153.599 99.4301 153.721 99.5521 153.782 99.5521C154.026 99.7351 154.27 99.9181 154.514 100.162C155.612 101.504 156.527 103.029 157.076 104.676C157.869 106.75 158.601 108.824 159.211 111.02C159.821 113.155 160.37 115.29 160.858 117.486C161.041 118.157 161.163 118.889 161.285 119.56C161.224 119.255 161.285 119.621 161.285 119.682C161.285 119.743 161.285 119.865 161.346 119.926L161.407 120.109C161.529 120.78 162.261 120.902 162.871 120.719C163.359 120.536 164.457 119.987 164.335 119.316Z" fill="#9ACBD0"/>
<path d="M166.713 119.316C166.713 119.316 178.73 99.247 172.813 94.977C166.896 90.707 161.467 93.208 160.186 100.711C158.905 108.214 161.955 118.279 163.785 119.255C165.615 120.231 166.713 119.316 166.713 119.316Z" fill="white"/>
<path d="M168.116 119.499C169.519 117.12 170.8 114.68 171.959 112.24C172.996 110.105 173.85 107.909 174.643 105.713C175.375 103.639 175.863 101.504 175.985 99.3081C176.046 97.5391 175.68 95.7091 174.338 94.4281C172.142 92.4761 169.214 91.5611 166.286 91.9271C158.966 93.1471 158.112 101.931 158.661 107.848C158.905 111.264 159.698 114.68 161.101 117.791C161.589 118.767 162.077 119.804 163.053 120.292C164.456 121.024 166.53 121.085 167.75 119.926C168.238 119.499 168.482 118.767 167.872 118.34C167.201 117.974 166.347 118.035 165.737 118.523C165.554 118.645 165.676 118.584 165.798 118.523C165.676 118.584 165.432 118.584 165.737 118.584C165.31 118.645 165.676 118.584 165.676 118.584C165.493 118.523 165.188 118.462 164.944 118.34C164.883 118.34 164.883 118.279 164.822 118.279C164.639 118.157 165.005 118.462 164.822 118.279C164.334 117.608 163.907 116.937 163.663 116.144C162.626 113.46 161.955 110.654 161.711 107.848C161.345 104.798 161.345 101.443 162.321 98.5151C162.687 97.3561 163.297 96.2581 164.151 95.3431C164.456 95.0381 164.883 94.7331 165.31 94.4891C165.676 94.3061 166.103 94.1841 166.469 94.0621C167.567 93.9401 168.665 94.1231 169.702 94.6111C170.312 94.8551 170.922 95.2211 171.471 95.5871C171.654 95.7091 171.898 95.8921 172.081 96.0141C172.142 96.0751 172.264 96.1361 172.081 96.0141C172.142 96.0751 172.203 96.1971 172.325 96.2581C172.447 96.3191 172.508 96.5021 172.569 96.6241C172.63 96.6851 172.63 96.7461 172.691 96.8071C172.569 96.6241 172.691 96.7461 172.691 96.8071C172.813 97.1731 172.935 97.4781 172.996 97.8441C173.118 98.5761 173.179 99.3081 173.057 100.04C172.752 104.005 171.044 107.909 169.397 111.508C168.177 114.07 166.896 116.571 165.432 119.011C165.066 119.682 165.798 120.231 166.347 120.292C167.018 120.475 167.75 120.109 168.116 119.499Z" fill="#9ACBD0"/>
<path d="M169.397 123.891C167.872 126.575 165.127 128.344 162.016 128.649C158.844 128.954 154.635 129.137 154.269 127.49C153.598 124.867 157.807 117.913 165.31 118.218C170.312 118.401 170.983 121.024 169.397 123.891Z" fill="white"/>
<path d="M168.055 123.586C167.323 124.928 166.164 126.087 164.761 126.819C163.48 127.429 162.077 127.734 160.613 127.734C159.21 127.917 157.746 127.856 156.343 127.551C156.16 127.49 155.977 127.429 155.855 127.307C155.916 127.368 155.794 127.185 155.733 127.185L155.672 126.819V126.636C155.672 126.88 155.672 126.453 155.733 126.453C156.465 122.061 161.223 118.95 165.554 119.316C166.652 119.438 167.994 119.682 168.482 120.719C168.909 121.512 168.482 122.671 168.055 123.586C167.262 125.05 170.19 125.294 170.8 124.196C171.41 123.098 171.959 121.634 171.532 120.292C171.105 118.828 169.763 118.035 168.36 117.608C164.639 116.571 160.674 117.303 157.502 119.499C155.306 121.085 153.293 123.403 152.744 126.087C152.5 127.124 152.622 128.283 153.537 128.954C155.001 129.93 157.075 129.93 158.722 129.93C161.04 129.869 163.419 129.747 165.554 128.771C167.75 127.856 169.519 126.209 170.739 124.196C171.654 122.732 168.665 122.427 168.055 123.586Z" fill="#9ACBD0"/>
<path d="M161.04 124.562C161.467 124.623 161.833 124.318 161.894 123.891C161.894 123.708 161.894 123.586 161.772 123.403C161.406 122.732 160.735 122.244 159.942 122.244C159.515 122.183 159.149 122.488 159.088 122.915C159.088 123.098 159.088 123.22 159.21 123.403C159.576 124.074 160.247 124.501 161.04 124.562Z" fill="#9ACBD0"/>
<path d="M164.579 121.878C164.701 122 165.006 121.817 164.945 121.634C164.823 121.573 164.701 121.573 164.518 121.573" fill="white"/>
<path d="M165.128 123.098L165.25 123.22H165.311H165.372C165.433 123.22 165.433 123.22 165.494 123.22C165.555 123.22 165.616 123.159 165.677 123.159L165.738 123.098C165.738 123.037 165.799 123.037 165.799 122.976C165.799 122.976 165.799 122.976 165.799 122.915V122.854C165.799 122.793 165.799 122.732 165.799 122.671C165.799 122.61 165.677 122.305 165.738 122.427C165.677 122.244 165.555 122 165.433 121.817L165.189 121.451L164.945 121.085C164.823 120.963 164.762 120.78 164.64 120.658L164.518 120.536C164.457 120.414 164.335 120.353 164.213 120.292H164.152H164.091C164.03 120.292 163.908 120.292 163.847 120.292C163.786 120.292 163.725 120.292 163.664 120.292C163.664 120.353 163.664 120.414 163.664 120.475C163.664 120.597 163.725 120.719 163.786 120.78C163.847 120.902 163.908 121.085 164.03 121.207C164.152 121.329 164.213 121.573 164.335 121.695L164.579 122.061C164.701 122.244 164.884 122.427 165.006 122.61L165.189 122.793C165.25 122.854 165.311 122.915 165.433 122.915C165.494 122.915 165.555 122.915 165.616 122.915H165.555C165.616 122.915 165.677 122.915 165.799 122.976L164.213 120.658V120.475C164.152 120.597 164.091 120.658 163.969 120.658H164.03C163.969 120.658 163.969 120.658 163.969 120.597L164.091 120.719C164.03 120.658 163.969 120.597 163.908 120.597C163.847 120.597 163.847 120.597 163.847 120.658C163.847 120.78 163.847 120.841 163.908 120.963C163.969 121.085 164.03 121.207 164.091 121.329L164.274 121.634C164.396 121.878 164.579 122.122 164.701 122.305L164.945 122.61C164.884 122.793 165.006 122.915 165.128 123.098Z" fill="#9ACBD0"/>
<path d="M164.518 125.782C165.006 125.782 163.969 124.806 163.908 124.745C163.42 124.318 162.81 124.013 162.2 123.952C161.712 123.952 162.749 124.928 162.81 124.989C163.237 125.416 163.847 125.721 164.518 125.782Z" fill="#9ACBD0"/>
<path d="M74.8481 161.467C68.4431 192.882 64.1731 243.085 63.7461 244.671C63.3191 246.257 54.6571 249.307 47.3981 250.527C40.1391 251.747 42.9451 254.98 42.9451 254.98C36.1131 255.407 36.1131 261.019 42.3351 261.629C48.5571 262.239 61.4281 259.86 61.4281 259.86C61.4281 259.86 42.5181 270.23 52.7051 271.938C62.8921 273.646 80.5821 259.433 83.3881 259.189C86.1941 258.945 94.0021 269.315 98.0281 263.886C102.054 258.457 91.3181 253.028 86.4381 244.549C81.8021 236.497 98.8821 193.736 104.372 165.066C105.165 161.101 105.348 157.014 104.86 152.988C104.189 147.071 101.932 140.178 95.2831 140.361C83.8151 140.727 76.9831 150.975 74.8481 161.467Z" fill="white"/>
<path d="M73.3834 161.406C71.5534 170.495 70.0894 179.706 68.8084 188.856C67.5274 198.128 66.3684 207.461 65.2704 216.733C64.4774 223.748 63.7454 230.702 63.0134 237.717C62.8304 239.608 62.6474 241.438 62.4034 243.329C62.3424 243.695 62.2814 244.122 62.2814 244.488C62.2814 244.793 62.4034 244.122 62.2814 244.366C62.2814 244.366 62.4644 244 62.3424 244.183C62.2814 244.244 62.1594 244.366 62.4644 244.061L62.1594 244.366L61.9764 244.488C61.7934 244.61 62.2204 244.366 62.0374 244.488C61.8544 244.61 61.7324 244.671 61.5494 244.793C61.1224 245.037 60.7564 245.22 60.3294 245.403C58.2554 246.318 56.1204 247.111 53.9244 247.66C52.5824 248.026 51.2404 248.331 49.8984 248.636C48.6174 248.941 47.2754 249.063 45.9944 249.368C44.2254 249.795 42.0904 250.588 41.2974 252.357C40.8704 253.333 40.9314 254.37 41.4804 255.285C41.6024 255.529 41.7244 255.712 41.9074 255.895L43.1884 253.516C40.6264 253.699 37.2714 254.553 36.4784 257.359C35.7464 259.921 37.8814 261.873 40.1994 262.605C42.7614 263.398 45.8114 263.154 48.4344 262.91C51.3014 262.727 54.1074 262.361 56.9134 261.934C58.4994 261.69 60.1464 261.446 61.7324 261.141L60.8784 258.518C59.2924 259.372 57.7674 260.348 56.2424 261.324C53.7414 262.971 51.0574 264.74 49.2884 267.18C48.6174 268.095 48.0684 269.315 48.3734 270.474C48.7394 271.877 50.0814 272.609 51.4234 272.914C55.3274 273.951 59.5364 272.731 63.1964 271.328C67.2834 269.681 71.1874 267.668 74.9694 265.35C77.6534 263.764 80.3374 261.812 83.1434 260.531L83.3874 260.409C83.6924 260.287 83.0824 260.47 83.3264 260.409C83.3874 260.409 83.4484 260.409 83.5704 260.348C83.8144 260.226 83.0824 260.348 83.5093 260.348C83.2043 260.226 83.6924 260.348 83.5093 260.348C83.5704 260.348 83.9364 260.47 83.7534 260.409C83.5704 260.348 83.9974 260.531 84.0584 260.531C84.2414 260.592 84.3634 260.714 84.5464 260.836C86.0104 261.751 87.3524 262.91 88.8164 263.886C91.6834 265.96 95.8924 268.156 98.8204 265.045C100.223 263.703 100.833 261.751 100.467 259.86C100.04 257.969 98.8204 256.322 97.5393 254.919C94.3674 251.198 90.3414 248.026 87.9624 243.695C87.8404 243.512 87.7794 243.329 87.7184 243.146C87.6574 243.085 87.6574 242.963 87.6574 242.902C87.8404 243.329 87.6574 242.963 87.6574 242.841C87.5354 242.353 87.4744 241.865 87.4134 241.377C87.4134 241.133 87.3524 240.828 87.3524 240.584C87.3524 240.34 87.3524 240.828 87.3524 240.401V239.913C87.3524 239.242 87.4133 238.571 87.4743 237.9C87.8404 234.362 88.4504 230.885 89.3044 227.469C91.5004 218.014 94.3674 208.742 97.1124 199.47C100.101 189.344 103.09 179.157 105.286 168.848C105.957 166.042 106.445 163.175 106.75 160.308C106.994 157.075 106.872 153.842 106.323 150.67C105.591 146.339 103.822 141.337 99.3694 139.568C96.9903 138.592 94.3064 138.836 91.8054 139.324C89.3044 139.873 86.8644 140.91 84.7904 142.374C80.6424 145.18 77.6534 149.511 75.7014 154.147C74.7254 156.465 73.9934 158.844 73.5054 161.345C73.4444 162.077 73.9934 162.687 74.7254 162.748C74.7864 162.748 74.8474 162.748 74.8474 162.748C75.6404 162.748 76.3724 162.199 76.4944 161.406C78.3244 152.622 83.7534 143.35 93.3304 141.886C95.4044 141.581 97.5394 141.581 99.3084 142.923C100.833 144.082 101.809 145.912 102.419 147.742C104.31 152.988 104.188 159.088 103.212 164.517C101.443 174.216 98.6374 183.793 95.8924 193.248C93.1474 202.703 90.2194 212.158 87.7184 221.674C86.7424 225.517 85.7664 229.36 85.0954 233.264C84.4854 236.07 84.3023 238.937 84.4244 241.804C84.6684 245.098 86.7424 247.599 88.8164 250.039C90.4024 251.869 92.1104 253.516 93.6964 255.285C95.0384 256.688 96.3194 258.03 97.1124 259.738C97.1734 259.921 97.2344 260.043 97.3564 260.226C97.4784 260.409 97.4174 260.409 97.4784 260.47C97.5394 260.653 97.5394 260.775 97.6004 260.958C97.6004 261.019 97.6614 261.629 97.6614 261.324C97.6614 261.507 97.6614 261.629 97.6004 261.812C97.6004 261.812 97.5393 262.178 97.5393 261.995C97.5393 261.812 97.4784 262.056 97.4784 262.117C97.3564 262.422 97.2344 262.727 96.9904 262.971C96.9294 263.032 96.8684 263.154 96.8074 263.215C96.6854 263.398 96.9294 263.093 96.7464 263.276C96.6244 263.398 96.4414 263.581 96.2584 263.703C96.5024 263.52 96.1364 263.764 96.0754 263.825C96.0144 263.886 95.9534 263.886 95.8314 263.947C96.0754 263.825 95.8924 263.886 95.7704 263.947L95.5264 264.008C95.5874 264.008 95.8314 264.008 95.5264 264.008C95.3434 264.008 95.2214 264.008 95.0384 264.008C94.7944 264.008 94.9774 264.008 95.0384 264.008L94.7943 263.947C94.5504 263.886 94.3674 263.825 94.1843 263.764C92.8424 263.337 91.1954 262.178 89.8534 261.202C88.5724 260.165 87.2914 259.25 85.8884 258.396C84.8514 257.664 83.5093 257.542 82.2894 258.03C81.3134 258.457 80.3374 258.945 79.4224 259.555C76.1894 261.446 73.0784 263.459 69.7844 265.289C66.1244 267.302 62.4034 269.193 58.4384 270.108C56.7914 270.596 55.0834 270.718 53.3754 270.535C53.6194 270.535 53.1314 270.474 53.0704 270.474C52.8874 270.474 52.7044 270.413 52.5824 270.352L52.0944 270.23H51.8504C51.5454 270.108 52.0944 270.352 51.8504 270.23L51.5454 270.047C51.3624 269.925 51.3014 269.803 51.4844 270.047C51.4234 269.986 51.3624 269.864 51.2404 269.803C51.3014 269.864 51.3624 270.047 51.2404 269.803C51.1184 269.559 51.3014 270.108 51.2404 269.803C51.1794 269.498 51.2404 269.803 51.2404 269.864C51.2404 269.742 51.2404 269.681 51.2404 269.559C51.1184 269.864 51.2404 269.437 51.2404 269.559C51.3014 269.498 51.3014 269.376 51.3624 269.254C51.4844 268.888 51.3014 269.315 51.4234 269.193C51.5454 268.949 51.7284 268.705 51.9114 268.522L52.1554 268.217C52.2774 268.095 52.4604 267.851 52.2164 268.095C52.4604 267.851 52.7044 267.607 52.9484 267.363C53.4364 266.875 53.9854 266.448 54.5344 266.021C55.0834 265.594 55.6934 265.106 56.3034 264.679L57.2184 264.069L57.6454 263.764L57.8894 263.581C58.8654 262.91 59.9024 262.3 60.8784 261.751C61.3054 261.507 61.6714 261.263 62.0984 261.08C63.5624 260.287 62.9524 258.152 61.2444 258.518C57.9504 259.128 54.5954 259.616 51.2404 259.921C48.8004 260.226 46.3604 260.348 43.9204 260.287C42.8224 260.287 41.7244 260.104 40.6874 259.738C40.3824 259.555 40.0774 259.372 39.8334 259.189C39.7724 259.128 39.4674 258.762 39.5284 258.884C39.5894 259.006 39.3454 258.579 39.2844 258.457C39.4674 258.823 39.2234 257.908 39.2234 258.335C39.2234 258.213 39.3454 257.725 39.2234 258.091C39.2234 258.03 39.2844 257.908 39.3454 257.847C39.4674 257.542 39.2234 257.969 39.4064 257.725L39.5284 257.542C39.7114 257.298 39.3454 257.664 39.5894 257.481C39.9554 257.176 40.3824 256.932 40.8094 256.81C41.4804 256.627 42.0904 256.505 42.7614 256.444C43.9204 256.383 44.9574 255.102 44.0424 254.065L43.9814 254.004C44.1034 254.187 44.2254 254.37 43.9814 254.004C43.9814 253.943 43.9204 253.882 43.9204 253.821C43.7984 253.638 43.9204 253.699 43.9204 253.882C43.9204 253.821 43.9204 253.699 43.8594 253.638C43.7984 253.394 43.9204 253.516 43.8594 253.638C43.8594 253.638 43.9204 253.211 43.8594 253.516C43.7984 253.821 43.9204 253.394 43.9204 253.333C43.9204 253.272 43.8594 253.455 43.8594 253.455L43.9814 253.333L44.1034 253.211C43.8594 253.516 44.1034 253.272 44.1644 253.211L44.3474 253.089C44.0424 253.272 44.2864 253.15 44.3474 253.089C44.4694 253.028 44.6524 252.906 44.8354 252.845C45.2624 252.662 45.6894 252.479 46.1774 252.357C47.4584 252.052 48.8004 251.869 50.0814 251.564C51.3624 251.259 52.7654 250.954 54.1074 250.588C56.4864 249.978 58.8654 249.185 61.1224 248.209C62.4644 247.599 64.2334 246.928 64.9654 245.525C65.1484 245.098 65.2704 244.61 65.3314 244.122C65.5144 242.536 65.6974 240.95 65.8194 239.364C66.4904 232.776 67.1614 226.188 67.8934 219.6C68.9304 210.511 69.9674 201.422 71.2484 192.394C72.5294 183.122 73.9324 173.911 75.6404 164.7C75.8234 163.663 76.0674 162.626 76.2504 161.65C76.3114 160.918 75.7624 160.308 75.0304 160.247C74.9694 160.247 74.9084 160.247 74.9084 160.247C74.2374 160.186 73.5664 160.674 73.3834 161.406Z" fill="#000005"/>
<path d="M62.769 249.551L62.403 249.673C62.83 249.49 62.464 249.673 62.281 249.734L61.671 249.917C60.573 250.283 59.414 250.649 58.316 251.015C55.266 251.991 52.155 252.906 48.983 253.577C47.397 253.943 45.75 254.187 44.164 254.248C43.493 254.37 42.822 254.614 42.212 254.98C42.029 255.102 41.236 255.59 41.846 255.529C45.079 255.407 48.373 254.553 51.484 253.699C54.412 252.906 57.34 251.991 60.207 251.015C60.878 250.771 61.549 250.527 62.22 250.344C62.464 250.222 63.867 249.795 63.867 249.429C63.867 249.063 62.891 249.49 62.769 249.551Z" fill="#000005"/>
<path d="M68.5644 254.309L61.9764 258.335L61.0004 258.884C59.7194 259.677 62.2204 261.202 63.1354 260.653L69.7234 256.627L70.6994 256.078C71.9804 255.224 69.4794 253.699 68.5644 254.309Z" fill="#000005"/>
<path d="M102.541 132.065C104.249 123.952 104.432 115.534 103.029 107.36L103.761 107.482C110.898 103.761 116.083 97.1729 117.913 89.3039L118.584 86.3149C119.194 87.4129 119.743 88.3279 120.17 89.2429C120.231 87.4739 120.109 86.1319 119.682 85.5219C116.754 81.1909 108.275 78.1409 96.6235 80.7029C85.4605 83.2039 74.9685 86.2539 73.2605 109.312C73.0165 112.606 67.4655 129.503 68.5635 133.712C67.4045 145.485 76.4325 151.036 87.2905 147.376C92.9025 145.485 98.5755 142.618 100.894 137.738C101.199 136.823 102.541 132.065 102.541 132.065Z" fill="white"/>
<path d="M103.944 131.821C105.164 126.453 105.652 120.902 105.347 115.412C105.225 112.606 104.92 109.8 104.432 106.994L101.748 107.97C102.663 108.153 103.639 108.092 104.554 107.726C105.591 107.238 106.628 106.628 107.604 105.957C109.434 104.737 111.142 103.273 112.667 101.626C115.717 98.3321 117.913 94.3061 119.072 89.9751C119.438 88.6941 119.682 87.4131 119.987 86.1321L117.059 86.8031C117.608 87.7791 118.157 88.7551 118.645 89.7311C119.011 90.4021 121.573 89.6701 121.573 88.9381C121.634 87.6571 121.756 86.0711 120.963 84.9731C120.414 84.1801 119.743 83.5091 119.011 82.9601C117.181 81.5571 115.046 80.5811 112.789 80.0931C106.75 78.5071 100.528 79.3611 94.6105 80.7641C90.8895 81.5571 87.3515 82.8381 83.9965 84.6071C80.6415 86.5591 77.8355 89.3651 76.0055 92.7811C73.3215 97.7221 72.2845 103.456 71.8575 109.007C71.5525 112.667 70.2715 116.327 69.3565 119.865C68.7465 122.183 68.1975 124.501 67.7095 126.819C67.2825 128.71 67.0385 130.601 66.9165 132.553C66.9165 133.285 67.0385 134.017 66.9775 134.749C66.8555 136.091 66.9165 137.494 67.0995 138.836C67.4655 141.154 68.4415 143.35 69.9055 145.119C73.0775 148.84 78.2625 149.633 82.8985 148.962C86.0095 148.474 88.9985 147.498 91.8655 146.156C94.7935 144.997 97.4775 143.228 99.7345 141.032C100.772 139.995 101.626 138.775 102.236 137.494C102.297 137.433 102.236 137.311 102.175 137.25L102.114 137.189C101.565 136.64 98.8805 137.738 99.3685 138.226L99.4295 138.287C99.9175 138.775 101.992 138.104 102.236 137.494C103.029 135.603 103.578 133.712 103.944 131.821C104.188 131.15 101.321 131.577 101.077 132.309C100.65 134.261 100.101 136.152 99.3685 137.982L102.236 137.189L102.175 137.128L99.4295 138.165L99.4905 138.226L99.4295 137.982C98.1485 140.483 96.0745 142.618 93.6345 144.021C91.1945 145.485 88.5105 146.644 85.7655 147.376C81.6175 148.474 76.9815 147.925 73.7485 144.997C72.1625 143.533 71.0645 141.642 70.5155 139.568C70.2105 138.409 70.0275 137.189 69.9665 135.969C69.9665 134.932 70.0885 133.895 69.9665 132.858C69.9055 131.272 70.0275 129.686 70.3325 128.161C70.6985 125.965 71.1865 123.83 71.7355 121.695C72.6505 117.913 73.8095 114.192 74.5415 110.349C74.9685 108.092 75.0295 105.774 75.3345 103.517C75.7615 100.894 76.3715 98.2711 77.2865 95.7701C78.5675 92.0491 80.8245 88.7551 83.8135 86.2541C85.0335 85.2781 86.4365 84.4851 87.8395 83.8751C89.2425 83.2651 90.6455 82.7771 92.1095 82.4111C92.9025 82.1671 93.7565 81.9841 94.6105 81.8011L95.7695 81.5571C95.8305 81.5571 96.0745 81.4961 95.7695 81.5571L96.0135 81.4961C96.4405 81.4351 96.8675 81.3131 97.2945 81.2521C100.345 80.5811 103.517 80.3981 106.689 80.7031C109.129 80.8861 111.569 81.5571 113.765 82.5941C115.473 83.3261 116.937 84.5461 118.096 86.0101C118.828 87.1081 118.706 88.6331 118.645 89.8531L121.573 89.0601C121.085 88.0841 120.536 87.1081 119.987 86.1321C119.621 85.5221 117.181 86.1321 117.059 86.8031C116.571 89.4261 115.778 91.9271 114.863 94.4281C113.338 97.9661 111.081 101.138 108.214 103.7C106.567 105.164 104.798 106.445 102.846 107.482L104.31 107.055C105.164 106.994 104.859 107.055 104.493 107.055L104.127 106.994C103.517 106.933 102.968 106.994 102.419 107.238C102.175 107.36 101.382 107.604 101.443 107.97C102.785 115.595 102.785 123.342 101.321 130.967C101.199 131.516 101.138 132.004 100.955 132.553C100.894 132.98 103.761 132.553 103.944 131.821Z" fill="#000005"/>
<path d="M114.376 138.653C116.389 139.019 114.864 134.261 121.147 130.601C133.53 123.403 129.199 111.325 129.199 111.325C129.199 111.325 131.09 111.203 133.957 109.434C136.458 107.909 138.471 102.724 130.236 101.87C128.345 101.687 126.21 101.138 124.685 98.5759C123.099 95.8309 122.245 93.3299 120.171 89.2429C119.683 88.3279 119.195 87.3519 118.585 86.3149L117.914 89.3039C116.084 97.1729 110.899 103.822 103.762 107.482L103.03 107.36C104.433 115.534 104.311 123.952 102.542 132.065C102.481 132.065 107.971 137.494 114.376 138.653Z" fill="white"/>
<path d="M113.4 139.69C114.681 139.812 115.901 139.263 116.511 138.165C116.938 137.25 117.304 136.396 117.67 135.42C118.28 134.139 119.134 133.041 120.232 132.187C121.818 130.967 123.648 130.113 125.173 128.771C129.443 125.172 131.7 119.743 131.212 114.192C131.151 112.972 130.907 111.813 130.48 110.654L128.528 112.423C129.504 112.301 130.419 112.118 131.273 111.752C132.737 111.264 134.079 110.532 135.299 109.556C136.58 108.458 137.739 106.628 137.495 104.859C137.129 102.48 134.506 101.504 132.432 101.138C130.968 100.894 129.504 100.894 128.223 100.101C126.82 99.247 126.027 97.905 125.356 96.441C123.526 92.842 122.001 89.121 119.988 85.583C119.439 84.668 117.487 85.949 117.304 86.62C116.816 89.182 116.084 91.683 115.108 94.123C113.644 97.6 111.448 100.65 108.642 103.151C107.056 104.554 105.287 105.774 103.396 106.75L104.433 106.445C104.921 106.384 104.555 106.445 104.372 106.445L104.006 106.384C103.457 106.323 102.908 106.506 102.481 106.811C102.176 107.055 101.566 107.482 101.688 107.97C102.908 114.802 102.969 121.817 101.932 128.71C101.749 129.93 101.383 131.211 101.261 132.431C101.2 132.98 101.566 133.224 101.932 133.529C102.603 134.139 103.335 134.749 104.128 135.298C106.812 137.433 109.984 138.958 113.4 139.69C114.132 139.751 114.864 139.446 115.352 138.897C115.657 138.531 115.962 137.799 115.291 137.677C110.96 136.823 106.812 134.261 103.701 131.15L103.884 131.76C105.653 123.586 105.836 115.107 104.372 106.811L102.054 108.336L102.786 108.458C103.396 108.458 104.067 108.275 104.555 107.909C105.592 107.36 106.568 106.75 107.544 106.079C113.217 102.175 117.304 96.38 119.073 89.731C119.378 88.511 119.683 87.23 119.927 86.01L117.243 87.047C118.951 90.036 120.354 93.147 121.818 96.319C123.038 98.942 124.258 101.565 127.247 102.48C129.443 103.212 132.371 102.724 134.079 104.676C134.567 105.164 134.75 105.835 134.75 106.506C134.689 107.116 134.506 107.665 134.14 108.153C134.14 108.153 133.957 108.397 134.079 108.275C134.201 108.153 133.957 108.397 133.896 108.458L133.774 108.58C133.591 108.763 134.018 108.397 133.713 108.641C133.652 108.702 133.591 108.702 133.591 108.763C133.408 108.946 133.957 108.58 133.469 108.824C132.981 109.068 132.676 109.312 132.249 109.495C131.639 109.8 131.029 110.044 130.358 110.166C130.175 110.227 129.992 110.227 129.809 110.288C129.626 110.349 130.175 110.227 129.87 110.288C129.138 110.349 127.552 111.081 127.918 112.057C127.918 112.118 127.979 112.179 127.979 112.24C127.979 112.301 127.979 112.362 128.04 112.423C128.101 112.484 128.101 112.667 128.04 112.362L128.101 112.545C128.223 113.155 128.345 113.704 128.467 114.314C128.772 116.144 128.711 118.035 128.345 119.926C127.857 122.427 126.637 124.684 124.929 126.575C122.489 129.198 118.951 130.418 116.755 133.224C115.901 134.322 115.169 135.603 114.681 136.945C114.559 137.25 114.315 137.921 114.254 138.043C114.315 137.86 114.193 138.104 114.193 138.104C114.193 138.165 114.132 138.165 114.132 138.226C114.254 138.043 114.315 138.043 114.193 138.104C114.437 137.799 114.803 137.616 115.169 137.555C115.413 137.555 115.413 137.494 115.291 137.555C115.474 137.555 115.474 137.555 115.352 137.555C114.62 137.494 113.888 137.738 113.4 138.287C113.034 138.775 112.729 139.568 113.4 139.69Z" fill="#000005"/>
<path d="M119.5 101.321C119.5 101.321 120.781 102.724 119.378 103.822C117.975 104.92 116.572 103.151 117.487 101.809C117.853 101.138 118.646 100.833 119.317 101.199C119.378 101.199 119.439 101.26 119.5 101.321Z" fill="#000005"/>
<path d="M119.805 99.3689C122.733 98.3319 124.746 95.7089 124.99 92.5979C125.295 88.9989 122.611 85.2779 119.805 83.2649C119.378 82.9599 118.524 82.7159 118.28 83.3259C118.036 83.9359 118.707 84.7899 119.195 85.0949C121.269 86.5589 122.855 89.2429 122.428 91.8049C122.062 94.1839 120.354 96.1969 118.036 96.9289C116.816 97.4169 118.646 99.7349 119.805 99.3689Z" fill="#000005"/>
<path d="M131.943 94.733C131.943 90.524 129.808 86.62 126.209 84.363C122.671 82.106 118.279 81.679 114.192 81.862C113.765 81.862 113.338 82.167 113.338 82.594C113.338 82.777 113.338 82.899 113.46 83.082C113.826 83.753 114.497 84.241 115.29 84.241C118.462 84.119 121.939 84.241 124.806 85.888C127.551 87.535 129.198 90.524 129.198 93.696C129.259 94.428 129.747 95.038 130.418 95.282C130.845 95.404 131.943 95.526 131.943 94.733Z" fill="#000005"/>
<path d="M106.506 112.789C106.506 112.789 104.31 104.676 99.0639 108.763C93.8179 112.85 101.321 120.719 106.628 121.39" fill="white"/>
<path d="M107.909 112.118C107.116 109.312 105.042 106.079 101.687 106.75C99.1254 107.238 96.3194 109.312 95.9534 112.057C95.5874 114.436 97.1124 116.693 98.6374 118.279C100.528 120.414 103.151 121.878 105.957 122.366C106.689 122.366 107.421 122 107.909 121.451C108.275 120.902 108.031 120.536 107.421 120.475C105.53 120.231 103.517 118.95 101.992 117.608C100.467 116.266 99.0034 114.436 98.7594 112.423C98.6374 111.63 98.7594 110.776 99.1864 110.105C99.3694 109.8 99.6134 109.495 99.9184 109.251C100.04 109.129 100.162 109.068 100.345 109.007C100.589 108.824 100.467 108.946 100.406 108.946C100.528 108.885 100.65 108.824 100.772 108.763C100.467 108.885 100.894 108.702 101.016 108.702C100.65 108.824 101.443 108.641 101.077 108.702C101.138 108.702 101.626 108.702 101.443 108.702C101.809 108.763 102.114 108.885 102.419 109.068C103.029 109.434 103.517 109.983 103.883 110.532C104.493 111.447 104.981 112.484 105.225 113.521C105.408 114.131 106.628 113.704 106.933 113.582C107.299 113.277 108.031 112.789 107.909 112.118Z" fill="#000005"/>
<path d="M118.461 117.425C118.278 117.486 118.766 117.364 118.705 117.364H118.766C118.888 117.364 118.949 117.303 119.071 117.303C119.376 117.242 119.254 117.303 119.193 117.303C119.132 117.303 119.62 117.303 119.437 117.303H119.498C119.315 117.303 119.742 117.303 119.559 117.303H119.437L119.254 117.242C119.132 117.181 119.376 117.303 119.193 117.242C118.766 117.12 118.339 116.815 118.034 116.51L118.095 116.571C117.363 115.778 117.119 114.68 117.363 113.582C117.424 113.338 115.96 113.521 115.777 113.521C115.411 113.582 115.045 113.643 114.74 113.765C114.618 113.826 114.374 113.887 114.313 114.07C114.069 114.985 114.313 115.961 114.862 116.754C115.35 117.425 116.143 117.852 116.997 117.974C118.034 118.096 119.071 117.974 120.108 117.669C120.23 117.608 120.657 117.547 120.779 117.364C120.901 117.181 120.718 117.181 120.596 117.181C120.291 117.12 119.986 117.12 119.681 117.181C119.315 117.242 118.888 117.303 118.522 117.425H118.461Z" fill="#000005"/>
<path d="M101.87 94.6719C95.9528 101.138 87.5958 104.859 78.8118 104.859C78.3848 104.859 79.4218 105.774 79.4828 105.774C79.9708 106.201 80.5198 106.506 81.1908 106.628C90.0358 106.628 98.4538 102.907 104.432 96.3189C104.676 96.0749 102.297 94.1839 101.87 94.6719Z" fill="#000005"/>
<path d="M87.4138 118.645C85.9498 126.026 82.5338 132.858 77.5318 138.531C77.0438 139.08 78.8738 141.337 78.9958 141.215C84.0588 135.542 87.4748 128.649 88.9998 121.146C89.1218 120.597 88.5728 119.804 88.2678 119.377C88.2068 119.316 87.4748 118.279 87.4138 118.645Z" fill="#000005"/>
<path d="M176.352 138.653C176.352 138.653 175.376 127.49 170.252 127.856C166.897 128.1 169.947 137.86 169.947 137.86" fill="white"/>
<path d="M177.632 139.324C177.327 135.969 176.534 132.309 174.521 129.564C173.728 128.527 172.691 127.673 171.471 127.185C170.617 126.819 169.336 126.575 168.482 127.063C166.835 128.039 167.323 130.906 167.506 132.431C167.75 134.139 168.116 135.786 168.665 137.372C168.97 138.043 169.519 138.531 170.251 138.775C170.617 138.897 171.471 138.958 171.227 138.287C170.861 137.128 170.556 135.908 170.312 134.688C170.129 133.773 170.007 132.797 169.946 131.821C169.885 131.028 170.007 130.235 170.251 129.503C170.312 129.381 170.434 129.198 170.556 129.137C170.556 129.076 170.739 129.015 170.617 129.076C170.922 128.832 171.288 128.771 171.593 128.893C171.654 128.893 171.959 128.954 171.776 128.893C171.593 128.832 171.898 128.954 171.898 128.954C171.593 128.771 172.142 129.015 171.898 128.954C171.593 128.771 172.203 129.137 171.898 128.954L172.02 129.015C172.264 129.137 171.898 128.893 171.898 128.893C171.898 128.893 172.081 129.015 172.142 129.076C172.325 129.198 172.325 129.259 172.142 129.076C172.203 129.198 172.325 129.259 172.386 129.32L172.63 129.625C172.508 129.442 172.63 129.625 172.691 129.686C172.813 129.869 172.935 130.113 173.057 130.296C173.179 130.479 173.301 130.723 173.362 130.906C173.362 130.967 173.423 131.089 173.362 130.906L173.423 131.028C173.484 131.15 173.545 131.333 173.606 131.455C173.972 132.37 174.277 133.285 174.46 134.261C174.643 135.115 174.826 136.03 174.948 136.884C174.948 136.945 175.009 137.189 174.948 137.006C174.887 136.823 174.948 137.067 174.948 137.128C174.948 137.189 174.948 137.372 175.009 137.494C175.07 137.616 175.009 137.677 175.009 137.799C175.192 138.47 175.619 139.019 176.29 139.263C176.534 139.385 177.693 139.812 177.632 139.141V139.324Z" fill="#000005"/>
<path d="M177.632 145.302C177.632 145.302 179.706 141.642 176.168 137.982C172.63 134.322 167.994 134.322 167.262 137.494C166.53 140.666 173.362 143.655 173.362 143.655" fill="white"/>
<path d="M179.035 145.912C179.767 144.387 179.889 142.618 179.34 141.032C178.73 139.446 177.754 137.982 176.412 136.884C175.131 135.786 173.667 134.932 172.081 134.444C169.946 133.834 166.896 133.956 165.981 136.396C165.249 138.47 166.957 140.361 168.482 141.581C169.885 142.679 171.41 143.594 173.057 144.326C173.484 144.509 174.521 144.814 174.765 144.204C175.009 143.594 174.155 142.984 173.728 142.801C173.423 142.679 173.118 142.496 172.813 142.374C172.691 142.313 172.203 142.13 172.691 142.313C172.508 142.252 172.386 142.13 172.203 142.069C171.837 141.825 171.471 141.642 171.105 141.398C170.922 141.276 170.8 141.154 170.617 141.032C170.556 140.971 170.251 140.788 170.556 141.032L170.312 140.849C170.129 140.727 170.007 140.605 169.824 140.422L169.58 140.178L169.458 140.056C169.58 140.178 169.58 140.178 169.458 140.056C169.336 139.934 169.214 139.751 169.092 139.568L168.909 139.324C169.031 139.568 168.909 139.263 168.848 139.263C168.665 138.958 168.604 138.653 168.604 138.348C168.604 138.043 168.665 137.738 168.848 137.433C169.031 137.067 169.275 136.762 169.58 136.518C169.885 136.335 170.19 136.152 170.556 136.091C170.312 136.152 170.678 136.091 170.678 136.091H170.983C171.349 136.03 170.739 136.03 171.105 136.091L171.593 136.152C171.959 136.213 171.41 136.091 171.654 136.152L171.959 136.213L172.325 136.335C172.02 136.213 172.447 136.396 172.447 136.396C172.996 136.579 173.484 136.884 173.911 137.25C174.948 138.043 175.741 139.08 176.29 140.239C176.9 141.642 176.839 143.228 176.107 144.631C175.68 145.729 178.425 147.01 179.035 145.912Z" fill="#000005"/>
<path d="M179.034 147.62C179.034 147.62 179.705 144.326 175.252 141.581C170.799 138.836 167.993 139.995 168.115 143.655C168.237 147.315 174.093 147.864 174.093 147.864" fill="white"/>
<path d="M180.438 148.108C180.743 146.766 180.194 145.241 179.523 144.082C178.73 142.801 177.632 141.703 176.351 140.91C175.009 139.934 173.484 139.324 171.837 138.958C170.678 138.714 169.519 138.836 168.482 139.385C167.567 139.934 166.957 140.91 166.774 141.947C166.53 143.167 166.652 144.387 167.262 145.485C167.811 146.4 168.665 147.193 169.641 147.742C171.044 148.535 172.63 149.023 174.277 149.206C174.887 149.328 175.436 148.962 175.558 148.352C175.558 148.291 175.558 148.169 175.558 148.108C175.436 147.315 174.765 146.766 173.972 146.644C173.667 146.644 173.362 146.583 173.118 146.522C172.874 146.461 173.423 146.583 173.057 146.522L172.569 146.4C172.203 146.278 171.898 146.156 171.532 146.034L171.288 145.912C170.983 145.79 171.593 146.095 171.288 145.912L170.8 145.668C170.617 145.546 170.434 145.424 170.251 145.302C170.617 145.546 170.129 145.18 170.007 145.058C169.763 144.753 169.885 144.936 170.007 145.058L169.885 144.875C169.824 144.814 169.824 144.753 169.763 144.692C169.58 144.448 169.824 144.936 169.763 144.631C169.763 144.57 169.58 144.082 169.641 144.387C169.58 144.143 169.58 143.838 169.58 143.594C169.58 143.35 169.58 143.472 169.58 143.533C169.58 143.411 169.58 143.289 169.641 143.167C169.641 142.984 169.702 142.74 169.763 142.557C169.763 142.496 169.885 142.252 169.763 142.496C169.824 142.435 169.824 142.313 169.885 142.252C169.946 142.191 170.007 142.069 170.068 142.008C170.19 141.825 169.946 142.13 170.068 141.947C170.19 141.825 170.373 141.703 170.495 141.581C170.251 141.764 170.678 141.52 170.739 141.52C170.983 141.398 170.495 141.52 170.8 141.52L171.044 141.459C171.105 141.459 171.227 141.459 171.349 141.459C171.044 141.459 171.532 141.459 171.593 141.459L171.898 141.52C171.959 141.52 172.264 141.581 171.959 141.52C172.264 141.581 172.508 141.703 172.813 141.764C173.362 141.947 173.85 142.191 174.338 142.496C174.887 142.801 175.375 143.106 175.863 143.533C176.29 143.838 176.595 144.204 176.9 144.631C176.961 144.753 177.022 144.814 177.144 144.936C177.266 145.058 177.388 145.302 177.205 144.997C177.327 145.241 177.449 145.424 177.51 145.668C177.571 145.79 177.693 146.339 177.632 145.973C177.632 146.095 177.693 146.278 177.693 146.461C177.693 146.644 177.693 146.766 177.754 146.888V147.01C177.754 147.315 177.815 146.766 177.754 146.949C177.693 147.132 177.754 147.132 177.754 147.193C177.327 148.657 180.133 149.755 180.438 148.108Z" fill="#000005"/>
<path d="M169.093 146.827C167.934 144.265 165.86 142.191 163.237 141.154C161.59 140.422 159.821 140.056 157.991 139.934C156.832 139.934 155.368 140.239 155.002 141.52C154.575 143.045 155.856 144.326 156.954 145.058C158.357 145.973 159.882 146.766 161.407 147.376C163.176 148.108 165.067 148.657 166.958 149.023C167.568 149.145 168.422 149.328 168.971 148.901C169.52 148.474 169.276 147.62 168.91 147.132C168.361 146.461 167.69 145.912 166.958 145.424C166.226 144.875 165.494 144.326 164.762 143.838C163.176 142.801 161.468 141.947 159.699 141.215C159.15 141.032 158.601 140.849 158.052 140.727C157.93 140.727 156.893 140.605 156.893 140.605C157.991 142.862 159.821 144.631 162.078 145.668C162.688 145.912 163.298 146.095 163.908 146.156C164.152 146.217 164.396 146.217 164.64 146.217C164.701 146.217 164.945 146.217 164.823 146.156C163.237 145.18 161.407 144.631 159.516 144.448C159.516 144.448 159.089 144.387 159.028 144.448C158.967 144.509 159.455 144.692 159.455 144.692C160.126 144.936 160.858 145.119 161.529 145.18C162.017 145.241 161.773 145.18 160.919 144.997L161.224 145.119C161.468 145.241 161.712 145.363 161.895 145.546L164.64 146.095C162.505 145.119 160.797 143.411 159.821 141.276L157.015 140.727C159.516 141.764 161.895 143.106 164.03 144.753C164.762 145.363 166.47 146.339 166.348 147.559C166.287 147.803 166.165 148.047 165.982 148.169C165.86 148.23 165.677 148.291 165.555 148.291C165.311 148.352 164.945 148.047 165.982 148.413C165.494 148.23 164.884 148.108 164.396 147.925C163.115 147.437 161.895 146.888 160.736 146.156C159.699 145.546 158.418 144.814 157.991 143.594C157.503 142.557 157.991 141.337 159.028 140.849C159.455 140.666 159.882 140.605 160.37 140.605C160.614 140.605 161.041 140.666 160.492 140.544C159.943 140.422 160.431 140.544 160.614 140.605C163.054 141.642 165.006 143.533 166.043 145.973C166.165 146.278 167.202 146.4 167.507 146.461C167.873 146.522 168.239 146.644 168.544 146.644C168.666 146.827 169.093 146.888 169.093 146.827Z" fill="#9ACBD0"/>
</svg>
