<svg width="335" height="320" viewBox="0 0 335 320" fill="none" xmlns="http://www.w3.org/2000/svg">
<g clip-path="url(#clip0_3078_7595)">
<path d="M236.148 90.8073C229.138 82.3798 219.455 76.6053 208.709 74.444C198.189 72.2935 185.326 72.0975 175.76 77.5136C175.615 77.5935 175.49 77.7048 175.394 77.8394C175.298 77.9739 175.233 78.1283 175.204 78.2911C153.259 87.9414 137.853 126.372 159.689 154.415C161.279 153.842 162.685 153.62 164.403 153.065C163.091 149.292 163.385 145.301 162.001 141.545C160.889 138.532 160.155 135.352 160.539 133.705C160.838 132.43 163.757 132.856 164.867 133.557C167.391 135.151 167.961 139.365 168.823 142.618C168.787 141.73 170.395 140.597 171.301 140.584C171.751 140.607 172.188 140.734 172.58 140.956C172.972 141.177 173.306 141.486 173.558 141.86C174.032 142.362 174.391 142.961 174.61 143.617C174.573 143.239 174.65 142.86 174.831 142.527C175.013 142.194 175.29 141.924 175.627 141.751C176.029 141.476 176.501 141.325 176.988 141.315C177.474 141.305 177.952 141.437 178.364 141.695C179.546 142.198 179.733 142.362 180.639 143.729C180.51 142.472 181.23 142.454 182.488 142.62C183.678 142.836 184.737 143.505 185.443 144.486C190.073 149.95 188.193 164.028 185.59 170.52C195.439 172.51 205.665 171.331 214.802 167.153C223.94 162.975 231.52 156.011 236.457 147.26C246.302 130.332 249.18 106.897 236.148 90.8073ZM221.041 99.6708C219.186 103.644 216.121 106.846 213.422 110.285C195.706 132.859 200.577 138.586 195.228 142.088C194.857 142.307 194.423 142.397 193.994 142.344C193.566 142.291 193.168 142.097 192.862 141.793C182.81 129.636 175.22 123.01 173.335 120.023C173.211 119.803 173.163 119.549 173.197 119.299C173.231 119.049 173.346 118.818 173.524 118.639C173.702 118.461 173.934 118.346 174.184 118.312C174.434 118.278 174.688 118.327 174.907 118.451C179.417 120.92 190.871 133.587 194.23 137.459C195.236 135.246 195.785 126.285 211.055 107.024C213.429 103.678 216.29 100.705 219.542 98.2044C220.527 97.5233 221.447 98.7953 221.041 99.6646V99.6708Z" fill="#48A6A7"/>
<path d="M109.765 196.075C108.878 195.473 107.588 195.504 107.432 196.999C107.277 198.493 109.335 200.317 110.502 199.365C111.668 198.414 110.651 196.675 109.765 196.075Z" fill="#191919"/>
<path d="M166.844 145.023C166.331 141.989 165.976 136.902 163.071 135.13C162.647 134.87 161.93 135.203 162.092 135.752C162.569 137.394 163.491 138.841 163.958 140.504C165.038 145.164 165.804 149.891 166.251 154.654C164.31 154.261 162.293 154.609 160.595 155.628C158.897 156.648 157.642 158.266 157.077 160.164C156.897 161.107 156.934 162.079 157.187 163.005C157.44 163.931 157.902 164.788 158.537 165.508C160.243 167.868 162.142 170.082 164.214 172.128C164.525 172.425 165.168 172.114 164.899 171.685C161.353 166.007 158.679 164.488 158.5 161.773C158.48 160.809 158.729 159.859 159.221 159.029C159.712 158.2 160.425 157.524 161.28 157.078C162.924 156.169 164.572 156.376 166.309 156.024C166.328 156.819 166.321 157.614 166.29 158.41C166.288 158.525 166.33 158.638 166.408 158.724C166.486 158.81 166.594 158.863 166.709 158.872C166.825 158.882 166.94 158.846 167.03 158.774C167.121 158.702 167.18 158.597 167.197 158.483C167.891 154.011 167.772 149.451 166.844 145.023Z" fill="#191919"/>
<path d="M170.323 145.965C170.384 145.771 170.502 145.6 170.661 145.474C170.82 145.347 171.014 145.271 171.217 145.255C171.419 145.239 171.622 145.284 171.799 145.384C171.976 145.485 172.119 145.635 172.21 145.818C172.896 147.187 173.489 148.602 173.984 150.052C174.424 151.607 174.295 153.784 175.352 155.045C175.414 155.12 175.493 155.179 175.582 155.218C175.671 155.257 175.768 155.274 175.865 155.268C175.963 155.263 176.057 155.235 176.141 155.186C176.225 155.138 176.297 155.07 176.351 154.989C177.238 153.627 176.651 151.604 176.24 150.168C175.753 148.43 175.025 146.769 174.077 145.233C173.444 144.217 172.561 143.075 171.21 143.211C170.633 143.321 170.116 143.637 169.756 144.1C169.395 144.563 169.215 145.142 169.25 145.727C169.227 146.318 170.252 146.629 170.323 145.965Z" fill="#191919"/>
<path d="M176.59 145.654C179.194 143.155 179.855 149.204 180.047 150.535C180.711 155.213 180.202 155.586 181.064 156.656C181.119 156.721 181.189 156.772 181.267 156.806C181.346 156.84 181.431 156.856 181.517 156.852C181.602 156.849 181.686 156.826 181.761 156.785C181.836 156.745 181.901 156.688 181.951 156.618C182.905 155.337 182.376 153.218 182.211 151.719C182.079 149.809 181.718 147.922 181.138 146.097C180.258 143.71 177.506 142.451 175.758 144.878C175.378 145.399 176.108 146.121 176.59 145.654Z" fill="#191919"/>
<path d="M182.488 146.41C184.665 146.812 184.628 150.404 184.763 152.067C185.074 156.067 184.762 160.09 183.838 163.994C183.182 165.749 182.764 167.584 182.594 169.449C182.614 169.948 183.224 170.448 183.667 170.003C185.349 168.32 185.758 165.548 186.219 163.291C186.747 160.644 186.983 157.946 186.921 155.247C186.861 152.137 187.066 144.886 182.428 145.19C181.692 145.238 181.879 146.297 182.488 146.41Z" fill="#191919"/>
<path d="M166.9 243.207C166.995 243.283 167.015 243.302 166.9 243.207V243.207Z" fill="#191919"/>
<path d="M60.8568 313.249C63.1193 300.988 64.8034 288.369 62.9654 275.954C62.8332 275.066 61.3948 275.289 61.4103 276.158C61.9064 301.651 56.8666 318.653 52.3307 340.535C51.7647 343.273 50.6062 346.435 50.6855 349.243C50.7648 352.012 53.329 351.502 53.4954 350L53.7007 348.115C53.5001 346.716 58.56 325.692 60.8568 313.249Z" fill="#191919"/>
<path d="M193.601 226.657C192.151 211.903 190.671 196.748 186.371 182.521C185.925 181.043 183.596 181.411 183.949 182.988C186.473 194.888 188.38 206.911 189.663 219.008C191.102 231.193 192.327 243.563 190.865 255.804C189.609 266.306 186.723 277.678 177.422 283.872C169.675 289.031 160.006 292.21 151.129 289.844C139.535 286.755 136.558 283.537 128.053 275.459C127.935 275.329 127.772 275.249 127.597 275.236C127.422 275.224 127.249 275.28 127.115 275.393C126.98 275.506 126.895 275.667 126.877 275.841C126.858 276.016 126.909 276.19 127.017 276.328C132.047 283.234 137.704 288.146 144.102 290.79C144.438 295.104 145.024 299.396 145.859 303.642C150.763 337.704 148.157 341.918 149.667 350.662C149.799 351.421 150.964 351.348 151.147 350.662C152.454 345.784 152.029 340.419 151.832 335.423C151.266 321.117 148.613 299.908 146.302 291.6C154.531 294.301 163.863 293.475 174.371 288.865C185.277 284.078 189.704 275.82 192.307 264.863C195.277 252.358 194.852 239.399 193.601 226.657Z" fill="#191919"/>
<path d="M305.506 68.9526C304.142 64.9764 301.012 60.3379 296.981 59.2634C294.189 58.7106 291.357 58.3768 288.513 58.2651C249.681 54.3231 221.441 56.2031 190.254 56.3058C190.07 56.3006 189.889 56.3522 189.736 56.4535C156.042 57.486 127.67 55.4163 91.1507 61.0019C88.3781 61.4264 85.5527 61.5352 83.2373 63.4245C79.5161 66.4692 77.7528 71.2462 77.0437 76.0527C74.3473 94.3037 75.3612 137.83 76.4886 158.521C77.0157 168.2 77.2661 180.28 84.643 186.534C83.1814 187.943 82.226 189.796 81.9248 191.804C80.2796 201.068 85.5915 205.506 88.5818 212.272C89.8667 214.53 91.9834 216.196 94.4799 216.914C94.7504 219.392 94.3876 221.899 93.4256 224.199C78.0404 225.754 68.9204 230.047 56.5721 238.16C50.2136 242.123 44.2124 246.633 38.6367 251.639C28.394 261.291 22.0309 274.161 24.6215 288.435C27.4299 303.911 39.5293 317.53 52.9847 325.064C54.207 325.748 55.098 324.041 54.0577 323.234C48.7023 319.077 43.224 315.209 38.6367 310.161C27.1142 297.482 24.4396 283.186 27.9492 272.015C32.1757 258.566 43.7496 249.584 55.4074 241.802C61.4755 237.433 68.0122 233.756 74.8962 230.837C88.2241 225.74 102.799 225.395 116.852 226.639C125.154 227.376 134.437 230.262 142.405 232.797C150.301 235.31 164.075 243.798 166.997 244.131C166.997 244.131 169.851 244.867 168.162 242.875C166.89 241.373 162.744 239.158 157.456 236.698C157.622 236.646 157.772 236.553 157.892 236.426C158.011 236.3 158.097 236.145 158.14 235.977C158.445 233.411 158.464 230.819 158.196 228.248C157.801 201.765 163.522 183.715 165.204 175.551C165.232 175.446 165.228 175.335 165.191 175.233C165.155 175.13 165.088 175.041 165.001 174.977C168.143 175.144 171.306 174.977 174.449 175.088C177.518 175.198 180.885 176 183.916 175.554C184.069 175.521 184.207 175.44 184.31 175.323C184.413 175.206 184.476 175.058 184.488 174.902C184.501 174.746 184.463 174.591 184.38 174.458C184.297 174.326 184.173 174.224 184.028 174.167C181.092 172.971 177.298 173.223 174.172 173.169C170.857 173.004 167.533 173.202 164.261 173.76C164.128 173.79 164.01 173.863 163.926 173.969C163.841 174.075 163.795 174.206 163.795 174.342C163.795 174.477 163.841 174.609 163.926 174.715C164.01 174.82 164.128 174.894 164.261 174.924C162.771 175.776 155.678 201.826 156.089 229.435C156.108 230.778 156.01 234.899 156.736 236.35C146.048 231.431 130.85 225.914 122.583 224.924C118.385 224.42 114.115 224.036 109.843 223.835C109.074 221.748 108.734 219.526 108.845 217.304C111.083 217.615 113.468 217.321 114.614 215.399C116.5 212.236 114.196 208.262 114.023 204.951C114.019 204.815 113.966 204.684 113.874 204.583C113.782 204.481 113.657 204.416 113.521 204.398C113.386 204.38 113.248 204.411 113.133 204.486C113.018 204.56 112.934 204.673 112.894 204.804C111.775 207.592 113.877 210.333 113.412 213.162C112.75 217.194 108.33 214.224 105.887 215.158C105.739 215.204 105.61 215.296 105.518 215.421C105.426 215.546 105.377 215.697 105.377 215.852C105.377 216.007 105.426 216.158 105.518 216.283C105.61 216.407 105.739 216.499 105.887 216.545C106.479 216.762 107.085 216.941 107.699 217.082C107.428 218.617 107.428 220.187 107.699 221.722C107.793 222.402 107.923 223.077 108.088 223.743C103.92 223.601 99.7467 223.681 95.5871 223.983C95.7741 223.241 95.9103 222.487 95.9945 221.727C96.2102 220.253 96.1786 218.754 95.9012 217.29C97.2075 217.649 98.5609 217.806 99.9146 217.757C103.945 217.511 106.29 212.672 104.538 208.993C106.78 208.993 108.758 206.481 107.106 204.961C107.024 204.883 106.92 204.831 106.809 204.811C106.697 204.791 106.582 204.802 106.477 204.845C106.372 204.888 106.282 204.96 106.216 205.053C106.151 205.145 106.113 205.255 106.108 205.368C105.609 209.549 100.927 205.185 100.376 203.13C99.8167 201.042 101.908 198.29 104.186 200.042C104.74 200.468 105.312 199.47 105.166 198.896C104.978 198.158 104.833 197.399 104.629 196.658C104.969 196.384 105.284 196.081 105.572 195.753C107.156 194.913 108.661 193.928 110.066 192.813C111.432 196.436 113.676 199.664 116.597 202.207C116.208 202.454 115.771 202.616 115.315 202.679C114.859 202.743 114.394 202.707 113.953 202.575C113.73 202.513 113.492 202.543 113.29 202.657C113.088 202.771 112.941 202.96 112.879 203.183C112.817 203.406 112.846 203.645 112.96 203.846C113.074 204.048 113.264 204.196 113.487 204.258C114.376 204.508 115.318 204.506 116.206 204.251C117.094 203.997 117.894 203.5 118.516 202.816C118.676 202.654 118.766 202.434 118.766 202.206C118.766 201.978 118.676 201.758 118.516 201.596C113.073 197.002 111.593 192.188 111.027 191.955C111.212 191.788 111.397 191.603 111.582 191.437C120.218 191.822 128.869 191.674 137.487 190.994C144.201 190.435 150.847 191.28 157.901 191.16C158.03 190.661 158.14 190.143 158.271 189.625C151.584 189.625 147.748 189.299 141.536 189.107C136.283 188.952 134.249 190.187 113.246 189.663C117.718 184.22 117.847 177.689 115.298 173.926C114.337 172.411 112.938 171.225 111.287 170.525C109.636 169.825 107.81 169.644 106.054 170.006C102.557 170.939 100.624 174.282 98.879 177.159C95.402 182.898 94.3524 182.743 89.1525 184.13C88.1049 184.397 87.1022 184.816 86.1762 185.374C80.9825 181.294 79.6981 174.52 79.0014 167.802C77.378 152.136 76.6689 104.783 78.1322 84.6876C78.4432 80.3616 78.5443 75.3576 80.2034 71.3006C81.1647 68.5368 82.953 66.1356 85.3256 64.4229C86.3908 63.7791 86.8588 63.6531 95.0148 62.4807C126.661 57.9338 154.826 59.3955 184.822 58.7098C226.409 57.7581 256.472 56.7925 293.343 60.9288C296.19 61.2475 298.227 61.6472 300.276 63.9237C303.203 67.1737 304.237 71.1342 304.974 75.4431C308.084 93.6366 309.673 148.388 308.653 165.011C308.33 170.281 307.502 176.324 304.363 180.617C302.215 183.555 298.872 184.114 295.636 184.629C282.781 186.677 228.541 187.212 201.853 188.361C200.878 188.403 199.48 188.54 191.35 188.672C191.423 189.061 191.369 189.726 191.442 190.096C191.597 190.096 272.457 188.515 282.786 187.952C286.261 187.761 289.757 187.531 293.232 187.119C296.428 186.965 299.57 186.245 302.514 184.993C306.05 183.17 307.935 179.095 309.096 175.285C310.821 169.63 310.919 163.489 310.962 157.572C311.071 142.938 310.217 82.7019 305.506 68.9526Z" fill="#191919"/>
</g>
<defs>
<clipPath id="clip0_3078_7595">
<rect width="334.999" height="320" fill="white"/>
</clipPath>
</defs>
</svg>
