<svg width="357" height="342" viewBox="0 0 357 342" fill="none" xmlns="http://www.w3.org/2000/svg">
<path d="M242.667 74.4235C242.658 74.4004 242.642 74.3805 242.621 74.3666C242.601 74.3526 242.576 74.3451 242.551 74.3451C242.526 74.3451 242.502 74.3526 242.481 74.3666C242.461 74.3805 242.445 74.4004 242.436 74.4235C242.436 75.5282 240.832 76.2053 241.277 77.4525C241.473 77.987 242.204 78.3612 242.614 77.8267C242.628 77.8003 242.637 77.771 242.638 77.741C242.639 77.7109 242.634 77.6809 242.622 77.6534C242.61 77.6258 242.591 77.6014 242.568 77.582C242.545 77.5626 242.518 77.5488 242.489 77.5416H242.293C241.438 77.5416 241.438 76.9358 242.4 75.7598C242.546 75.5735 242.646 75.3555 242.692 75.1235C242.739 74.8914 242.73 74.6517 242.667 74.4235ZM246.444 72.624C246.551 72.9091 247.015 72.82 247.068 72.5349C247.068 71.9335 246.99 71.3347 246.836 70.7531C246.836 70.687 246.81 70.6235 246.763 70.5768C246.717 70.53 246.653 70.5037 246.587 70.5037C246.521 70.5037 246.457 70.53 246.411 70.5768C246.364 70.6235 246.338 70.687 246.338 70.7531C246.221 71.3762 246.257 72.0183 246.444 72.624ZM238.32 71.252C238.32 71.8044 238.32 72.8912 238.872 73.2298C238.898 73.2443 238.928 73.2526 238.958 73.254C238.988 73.2554 239.018 73.2498 239.045 73.2378C239.073 73.2257 239.097 73.2075 239.117 73.1844C239.136 73.1614 239.15 73.1343 239.157 73.105C239.069 72.5026 238.938 71.9071 238.765 71.3233C238.73 70.9848 238.32 70.9669 238.32 71.252ZM236.609 69.0961C236.576 69.1505 236.566 69.2157 236.581 69.2775C236.596 69.3393 236.635 69.3927 236.689 69.4257C236.744 69.4588 236.809 69.469 236.871 69.4539C236.933 69.4389 236.986 69.3999 237.019 69.3456C237.286 68.9892 238.801 67.938 238.979 67.5638C239.002 67.5357 239.017 67.5017 239.022 67.4656C239.027 67.4294 239.022 67.3926 239.007 67.3593C238.992 67.326 238.968 67.2975 238.938 67.2769C238.908 67.2564 238.873 67.2447 238.836 67.2431C237.856 67.2253 237.001 68.33 236.609 69.0961ZM246.623 66.762C247.514 66.8689 247.977 67.5816 248.404 68.2587C248.434 68.3105 248.48 68.3508 248.536 68.3733C248.591 68.3957 248.652 68.399 248.71 68.3826C248.767 68.3662 248.817 68.3311 248.852 68.2828C248.887 68.2345 248.905 68.1758 248.903 68.1162C248.903 66.958 247.638 66.2453 246.587 66.2275C246.266 66.2097 246.284 66.7264 246.623 66.762ZM264.44 127.003C268.271 126.771 272.03 125.684 275.861 125.346C276.164 125.346 276.164 124.829 275.861 124.865C271.995 125.206 268.167 125.892 264.422 126.914L264.44 127.003ZM245.999 127.769C246.284 127.769 246.159 127.288 245.874 127.324C241.901 127.947 237.91 128.66 233.954 129.408C233.848 129.408 233.954 129.604 233.954 129.604C237.999 129.052 242.026 128.464 245.999 127.769ZM187.237 229.329L158.836 209.551L153.455 218.513L191.282 243.529L222.961 184.892L213.838 180.616L187.237 229.329Z" fill="#48A6A7"/>
<path d="M235.327 159.216C234.846 158.005 234.614 158.165 233.331 157.898C231.211 157.435 229.073 157.025 226.935 156.597C220.307 155.261 213.803 153.034 207.335 151.252C200.796 149.498 194.403 147.234 188.217 144.481C186.436 143.697 184.796 142.931 183.157 142.005C182.177 141.435 180.146 139.653 179.059 139.724C178.436 139.724 178.738 139.724 178.026 140.33C176.689 141.577 175.389 142.806 173.981 143.893C168.476 148.182 162.616 151.997 156.467 155.297C147.01 161.029 137.163 166.09 126.996 170.441C126.926 170.461 126.863 170.502 126.818 170.56C126.773 170.618 126.748 170.689 126.747 170.762C125.835 181.341 126.824 191.998 129.669 202.228C132.325 212.544 135.518 222.714 139.237 232.696C145.865 250.816 155.754 267.654 170.382 280.322C185.652 293.56 198.89 295.876 199.015 295.752C204.372 291.674 209.281 287.039 213.661 281.925C223.81 270.604 231.718 257.46 236.966 243.19C240.166 234.3 242.173 225.026 242.935 215.609C243.933 203.136 242.151 190.825 239.995 178.477C239.133 171.908 237.568 165.451 235.327 159.216ZM240.031 230.486C237.618 242.221 233.044 253.404 226.543 263.466C210.168 287.591 198.961 295.057 198.783 295.182C182.237 289.574 167.793 279.058 157.375 265.034C152.454 258.564 148.226 251.595 144.76 244.241C140.941 235.665 137.662 226.858 134.943 217.871C131.985 209.294 129.691 200.502 128.083 191.573C127.303 186.827 126.939 182.022 126.996 177.212C126.996 176.072 127.21 171.118 127.192 171.136C127.371 170.833 140.466 165.239 145.99 162.103C153.491 157.755 161.259 153.729 168.458 148.811C171.61 146.726 174.59 144.391 177.366 141.827C178.364 140.9 178.756 140.419 180.11 140.971C181.055 141.345 186.649 144.535 188.609 145.337C196.481 148.655 204.594 151.371 212.877 153.461C217.206 154.691 221.536 156.098 225.937 157.025C228.725 157.46 231.485 158.055 234.204 158.807C235.22 159.448 237.251 167.555 237.768 169.693C238.73 174.112 239.443 178.602 240.209 183.021C242.899 198.914 243.63 214.647 240.031 230.522V230.486ZM117.232 85.9153C117.206 85.945 117.188 85.9815 117.181 86.0209C117.174 86.0602 117.178 86.1007 117.193 86.1378C117.208 86.1749 117.233 86.2072 117.265 86.2308C117.297 86.2544 117.335 86.2686 117.375 86.2716C117.701 86.2307 118.004 86.0823 118.236 85.85C118.469 85.6177 118.617 85.3147 118.658 84.9888C118.658 84.6859 117.571 83.3496 117.393 82.7438C117.382 82.7123 117.361 82.6851 117.334 82.6658C117.307 82.6465 117.275 82.6361 117.241 82.6361C117.208 82.6361 117.176 82.6465 117.148 82.6658C117.121 82.6851 117.101 82.7123 117.09 82.7438C116.93 83.2605 118.141 84.7215 118.07 85.1135C117.999 85.5055 117.5 85.648 117.232 85.9153ZM120.511 80.1424C120.341 80.7204 120.269 81.3225 120.297 81.9242C120.297 82.4409 121.099 82.4409 121.117 81.9242C121.197 81.3232 121.13 80.7115 120.921 80.1424C120.901 80.1051 120.872 80.0739 120.835 80.0521C120.799 80.0303 120.758 80.0188 120.716 80.0188C120.674 80.0188 120.632 80.0303 120.596 80.0521C120.56 80.0739 120.531 80.1051 120.511 80.1424ZM113.259 80.089C113.094 80.6714 113.094 81.2883 113.259 81.8707C113.259 82.2449 113.972 82.1914 113.936 81.8707C113.901 81.55 113.812 80.766 113.74 80.2137C113.757 80.1499 113.747 80.0821 113.714 80.0253C113.68 79.9685 113.626 79.9273 113.562 79.9108C113.498 79.8943 113.431 79.9037 113.374 79.9371C113.317 79.9706 113.276 80.0252 113.259 80.089ZM111.745 79.5901C112.03 79.2159 113.526 78.04 113.74 77.7014C113.777 77.6662 113.801 77.62 113.808 77.5699C113.816 77.5198 113.807 77.4686 113.783 77.4241C113.758 77.3796 113.72 77.3443 113.674 77.3236C113.628 77.3029 113.576 77.2979 113.526 77.3094C112.576 77.659 111.78 78.3346 111.281 79.2159C111.085 79.501 111.531 79.8395 111.745 79.5901ZM120.155 77.5232C120.802 77.8491 121.402 78.2628 121.936 78.7527C121.971 78.7883 122.016 78.8126 122.065 78.8226C122.114 78.8325 122.164 78.8275 122.21 78.8084C122.256 78.7892 122.296 78.7567 122.323 78.715C122.35 78.6733 122.365 78.6243 122.364 78.5745C122.364 78.1112 120.582 77.0778 120.101 77.1134C120.057 77.1313 120.021 77.1632 119.997 77.2039C119.974 77.2447 119.964 77.2922 119.97 77.3389C119.976 77.3856 119.998 77.4291 120.031 77.4624C120.064 77.4957 120.108 77.5171 120.155 77.5232ZM111.852 88.7483H111.691C111.691 89.8886 114.221 92.2048 117.589 90.7616C117.749 90.7616 117.589 90.4231 117.464 90.4766C116.474 90.8884 115.371 90.9411 114.346 90.6255C113.321 90.3098 112.439 89.6458 111.852 88.7483ZM43.5929 239.252C37.6953 239.84 31.6552 238.914 25.7754 239.644C25.7754 239.644 25.6507 239.751 25.6507 239.805C25.1844 244.664 25.28 249.56 25.9358 254.397C25.9394 254.441 25.954 254.484 25.9781 254.521C26.0023 254.558 26.0353 254.589 26.0741 254.61C26.113 254.631 26.1565 254.642 26.2008 254.642C26.245 254.643 26.2887 254.632 26.3277 254.611C32.065 254.914 38.0695 254.718 43.8245 254.451C43.9849 254.451 44.0561 254.094 44.0561 254.059C44.2287 249.193 44.1335 244.322 43.7711 239.466C43.7735 239.441 43.7708 239.415 43.7632 239.39C43.7555 239.365 43.7431 239.342 43.7265 239.322C43.7099 239.302 43.6896 239.286 43.6667 239.274C43.6437 239.262 43.6187 239.255 43.5929 239.252ZM26.3099 244.402C26.3099 242.905 26.3099 241.408 26.203 239.894C31.8428 240.183 37.4947 240.142 43.1296 239.769C42.9899 241.506 42.9483 243.249 43.0049 244.99C37.4537 244.51 31.8805 244.331 26.3099 244.455V244.402ZM26.6841 254.005C26.4168 251.03 26.3812 248.072 26.3456 245.097C28.9825 245.097 31.6908 245.203 34.2565 245.275C34.0422 248.075 34.204 250.892 34.7376 253.649C32.0462 253.535 29.35 253.672 26.6841 254.059V254.005ZM35.5928 253.702C35.5928 252.117 35.183 246.451 34.9514 245.221C37.6062 245.221 42.9871 245.667 43.0049 245.667C43.0049 248.375 43.2722 251.101 43.3256 253.774C40.849 253.952 38.2298 253.827 35.6463 253.756L35.5928 253.702Z" fill="black"/>
<path d="M346.49 251.19C346.122 248.737 344.913 246.488 343.069 244.829C340.842 243.137 337.884 243.422 335.265 243.511C331.345 243.635 323.274 244.402 323.274 244.384C321.92 240.589 320.726 236.704 319.158 233.016C318.081 229.876 315.834 227.273 312.886 225.747C310 224.5 296.459 225.462 290.187 226.032C294.908 210.424 295.158 188.847 295.158 184.677C295.812 184.237 296.375 183.674 296.815 183.02C298.223 180.686 297.243 177.087 297.029 174.575C296.423 167.751 296.049 160.82 295.087 154.031C296.907 152.18 298.498 150.116 299.826 147.884C304.138 140.633 304.156 132.561 302.16 124.526C300.165 116.49 294.534 110.272 288.209 104.82C281.926 99.1135 274.12 95.3562 265.741 94.0043C264.88 92.4983 263.884 91.073 262.766 89.746L261.198 90.6547C261.198 88.2493 260.2 77.9508 260.2 77.9508C261.661 77.5588 264.547 73.3361 264.993 70.2358C265.206 67.2152 264.678 64.1883 263.455 61.4183C262.231 58.6484 260.349 56.2194 257.973 54.3426C251.38 48.9974 238.374 51.5097 235.505 53.6834C234.717 54.3054 233.807 54.7539 232.833 54.9995C231.86 55.2451 230.846 55.2824 229.857 55.1088C229.857 55.1088 232.244 57.4963 230.783 57.9418C229.322 58.3872 228.325 55.964 228.325 55.964C227.986 60.8104 229.928 62.022 229.928 62.022C236.325 68.8995 241.153 63.3939 241.153 63.3939C241.153 63.3939 241.812 61.2558 248.69 62.8059C249.576 62.9323 250.425 63.2446 251.181 63.7224C251.937 64.2001 252.584 64.8325 253.079 65.5779C253.574 66.3234 253.905 67.165 254.051 68.0476C254.198 68.9303 254.156 69.8339 253.928 70.6991L254.801 71.0554C255.129 70.5784 255.499 70.1312 255.906 69.7191C259.79 67.0287 260.788 71.1089 260.788 71.1089C261.572 74.4229 257.492 75.3851 257.492 75.3851C257.599 79.982 256.761 80.7303 256.761 80.7303C253.447 84.7036 250.08 80.3918 250.08 80.3918C249.336 79.5348 248.398 78.8677 247.344 78.4463C246.291 78.0248 245.151 77.861 244.022 77.9686C239.817 78.1468 240.458 79.4831 238.676 80.7838C237.554 81.6034 236.414 80.6769 235.719 79.9107C235.719 78.3962 235.113 72.463 234.774 71.002V65.8171C233.527 65.4525 232.388 64.7854 231.46 63.875C229.679 69.2202 233.474 70.8594 234.525 71.2336C234.65 72.855 234.062 85.2025 236.307 89.8351C236.907 91.1231 237.817 92.2429 238.955 93.0946C240.092 93.9463 241.423 94.5037 242.828 94.717C242.632 95.7683 242.436 97.5144 242.4 97.9955C238.017 98.6369 234.472 101.452 231.068 104.107C226.985 107.227 223.198 110.716 219.754 114.53C213.55 121.263 209.515 129.706 208.173 138.762L202.062 136.98C202.15 136.588 202.192 136.188 202.186 135.786C202.181 135.069 201.959 134.371 201.551 133.782C201.142 133.193 200.565 132.741 199.895 132.485C199.225 132.229 198.494 132.181 197.797 132.347C197.099 132.513 196.468 132.886 195.986 133.417C195.634 133.904 195.38 134.454 195.238 135.038C195.238 135.038 185.01 130.512 179.897 128.321C178.811 127.618 177.491 127.374 176.226 127.644C174.269 128.691 172.533 130.107 171.113 131.813V131.706C169.331 129.515 165.411 129.693 164.841 132.882C164.73 133.813 164.878 134.756 165.269 135.608C164.378 136.267 163.487 136.962 162.453 137.639C159.959 131.474 157.589 125.042 153.545 119.822C150.183 115.352 146.129 111.448 141.536 108.258C135.234 103.769 127.639 101.46 119.905 101.684L119.442 100.561C119.442 99.8307 119.299 99.1001 119.21 98.3874C125.001 98.8685 128.012 90.1558 128.012 90.1558C128.216 91.6608 128.064 93.1927 127.567 94.628C127.567 94.628 133.447 86.1825 129.972 72.1601C126.498 58.1378 113.936 61.0777 113.936 61.0777C99.0231 52.4362 91.2726 67.9196 91.2726 67.9196C82.1856 89.9063 98.3995 99.1001 98.3995 99.1001C96.8316 97.9242 97.3305 95.2872 97.3305 95.2872C98.1439 96.4364 99.2085 97.385 100.443 98.0612C101.678 98.7373 103.051 99.1231 104.457 99.1892C104.457 99.7416 104.261 100.347 104.208 100.971L103.834 102.289C88.3148 107.759 74.6488 117.826 69.3214 133.969C66.7913 141.613 66.631 149.559 70.4796 156.811C73.7129 162.697 79.0434 167.149 85.4106 169.283C85.3336 170.327 85.4976 171.374 85.8899 172.344C86.2823 173.314 86.8925 174.181 87.6734 174.878C86.4618 175.43 83.3438 177.675 81.562 186.584C80.8315 190.254 79.4774 196.669 77.9985 203.635C70.2123 197.542 58.7735 188.241 58.5953 188.383C41.8825 201.836 9.25872 230.201 9.25872 230.237C9.22321 230.266 9.19714 230.305 9.18381 230.349C9.17048 230.393 9.1705 230.439 9.18386 230.483C9.19723 230.527 9.22333 230.566 9.25886 230.595C9.2944 230.624 9.33776 230.642 9.38345 230.647C12.0739 230.878 14.7287 231.039 17.4904 231.128C17.4904 247.68 18.8802 281.017 18.9514 281.017H12.7331C12.6086 283.812 12.7158 286.613 13.0538 289.391C25.3479 289.391 71.6555 289.07 88.1367 288.749C88.6712 296.607 89.3304 306.05 89.3304 306.05C88.2436 306.478 83.5754 309.257 82.1144 309.899C80.1544 310.754 78.5509 311.805 78.8003 314.175C78.8836 314.268 78.9872 314.341 79.1032 314.389C85.5251 314.87 91.981 314.619 98.3461 313.64C98.4871 313.594 98.6072 313.5 98.6846 313.373C99.1925 311.573 99.1925 309.668 98.6846 307.867L106.649 274.727C107.825 270.041 112.155 251.35 113.224 246.736C117.713 246.708 122.198 246.435 126.658 245.916C128.44 251.368 133.429 272.215 135.424 276.669C137.42 281.123 137.634 282.959 137.669 282.976C142.747 284.402 146.952 286.201 153.046 281.195C153.1 281.14 153.174 281.11 153.251 281.11C153.327 281.11 153.401 281.14 153.456 281.195C153.51 281.249 153.54 281.323 153.54 281.4C153.54 281.476 153.51 281.55 153.456 281.605C149.785 285.542 142.035 286.059 137.616 283.101L145.366 305.89C144.88 308.168 144.88 310.524 145.366 312.803C145.366 312.945 157.019 312.803 162.738 312.643C162.917 312.643 163.059 312.286 163.059 312.251C163.111 311.365 162.896 310.484 162.441 309.721C161.987 308.959 161.315 308.351 160.511 307.974C159.478 307.386 154.827 305.159 153.58 304.536V278.094C155.805 281.024 158.253 283.776 160.903 286.326C166.996 291.861 173.554 296.862 180.502 301.275C186.739 305.462 193.313 309.614 200.565 311.77C200.707 311.77 219.737 299.547 229.839 284.491V291.351C230.642 292.179 231.641 292.792 232.743 293.132C232.886 294.611 233.113 296.08 233.42 297.533C230.819 299.315 226.81 302.023 226.133 305.266C226.048 305.564 226.027 305.876 226.07 306.183C226.113 306.49 226.219 306.785 226.382 307.048C225.456 311.484 235.452 310.611 237.59 310.326C240.369 309.952 250.062 309.4 248.423 304.429C248.423 304.429 248.939 298.193 247.193 297.106C247.353 295.667 247.353 294.215 247.193 292.776C249.688 292.242 251.434 291.707 251.434 291.707L253.643 236.473C257.759 257.676 274.507 293.346 274.507 293.346C275.794 293.533 277.092 293.629 278.392 293.631C278.895 294.862 279.491 296.053 280.173 297.195C278.801 298.495 271.781 305.195 275.559 307.493C276.378 311.876 283.274 309.435 285.822 308.349C287.425 307.671 297.153 303.003 294.071 300.455C294.071 300.455 291.773 294.914 290.989 294.611C290.835 293.153 290.513 291.718 290.026 290.335C290.946 289.758 291.8 289.083 292.574 288.322C292.574 288.322 290.793 278.041 289.011 267.707C298.348 267.976 307.691 267.422 316.931 266.05C317.056 266.05 317.145 265.872 317.162 265.747C317.162 263.359 317.323 260.829 319.176 259.083C320.834 257.732 322.819 256.841 324.931 256.5C330.561 255.288 332.984 259.065 334.41 263.823C334.41 263.947 343.229 263.413 347.506 263.573C347.737 263.573 347.826 263.074 347.826 263.021C347.801 259.041 347.353 255.075 346.49 251.19ZM242.579 62.3071C240.191 63.679 237.144 61.63 236.414 59.2959C236.414 59.1712 236.556 59.0821 236.628 59.2068C237.198 60.2402 239.478 62.8772 242.436 61.7904C242.579 61.7013 242.775 62.1823 242.579 62.3071ZM285.109 103.109C291.345 107.849 297.902 113.906 300.61 121.425C303.318 128.944 304.067 138.299 300.343 145.728C296.74 152.444 291.049 157.804 284.129 160.998C276.207 164.642 267.583 166.503 258.864 166.45C258.818 166.432 258.767 166.432 258.721 166.45C257.055 163.069 255.1 159.838 252.877 156.793C262.875 150.41 273.206 144.564 283.826 139.279C283.868 139.253 283.901 139.216 283.92 139.171C283.939 139.126 283.944 139.077 283.933 139.029C282.845 135.362 282.123 131.596 281.777 127.786C281.777 127.626 281.51 127.608 281.51 127.786C281.593 130.832 281.999 133.86 282.721 136.82C283.078 138.352 283.933 138.601 282.614 139.368C280.049 140.704 263.318 149.595 257.67 153.051C257.42 150.022 256.583 135.947 256.619 135.911C259.06 131.831 268.307 115.011 270.873 110.967C270.893 110.947 270.908 110.923 270.919 110.897C270.93 110.871 270.936 110.843 270.936 110.815C270.936 110.787 270.93 110.759 270.919 110.733C270.908 110.707 270.893 110.684 270.873 110.664C269.792 108.903 268.493 107.287 267.006 105.853C268.991 104.306 271.143 102.985 273.421 101.915C273.617 101.915 273.848 101.755 273.706 101.541C272.248 99.1952 270.539 97.0146 268.61 95.0378C274.593 96.5558 280.194 99.3047 285.055 103.109H285.109ZM248.761 165.007C245.394 168.018 245.198 166.29 245.109 165.737C246.358 165.073 247.515 164.246 248.547 163.279C248.547 163.279 248.44 162.994 248.351 163.065C247.621 163.564 243.541 167.003 243.541 164.954C244.867 163.308 246.4 161.841 248.102 160.588C247.853 160.107 246.962 160.588 246.73 157.613C247.853 158.463 249.224 158.92 250.632 158.913C251.476 158.957 252.314 158.746 253.037 158.308C253.687 159.661 254.425 160.971 255.247 162.227C254.125 163.306 252.934 164.312 251.683 165.239C250.561 166.023 248.12 167.965 246.694 167.02C247.516 166.478 248.302 165.883 249.046 165.239C249.082 165.132 248.815 164.918 248.708 165.007H248.761ZM268.147 94.9309C268.806 96.0177 272.387 100.436 273.296 101.684C270.832 102.484 268.621 103.915 266.882 105.835L270.623 110.735C265.884 118.878 260.307 126.771 256.601 135.519C257.897 121.785 260.718 108.237 265.011 95.1268L265.652 94.4498L268.147 94.9309ZM262.677 90.1558C263.407 91.5455 264.458 92.7215 265.225 94.1469C262.837 96.6413 260.2 98.8151 257.688 101.274C256.745 99.1088 255.549 97.0633 254.124 95.1803C257.162 93.8613 260.033 92.1866 262.677 90.1914V90.1558ZM252.734 94.1291C258.347 92.8997 259.755 85.737 260.111 81.3539C260.111 82.2448 260.467 88.4809 260.735 90.7259C260.725 90.7669 260.725 90.8097 260.735 90.8507L253.804 94.9309C253.036 96.3381 252.381 97.8037 251.844 99.3139C251.243 97.7262 250.528 96.184 249.706 94.6992C250.721 94.5745 251.701 94.3963 252.734 94.1647V94.1291ZM251.612 100.116C251.605 100.153 251.605 100.192 251.613 100.229C251.621 100.266 251.636 100.302 251.658 100.333C251.679 100.364 251.707 100.391 251.739 100.412C251.77 100.433 251.806 100.447 251.844 100.454C251.881 100.461 251.92 100.461 251.957 100.453C251.994 100.445 252.029 100.43 252.061 100.409C252.092 100.387 252.119 100.36 252.14 100.328C252.161 100.296 252.175 100.26 252.182 100.223C252.717 98.6013 253.501 97.0333 253.964 95.4119C254.954 97.5863 256.147 99.6624 257.527 101.612C259.988 99.8434 262.306 97.8834 264.458 95.7505C258.596 108.704 256.387 127.234 256.049 133.328C254.623 127.982 248.262 106.209 245.91 100.918C246.509 101.292 247.186 101.523 247.888 101.595C248.334 100.828 249.171 96.1246 249.67 94.8239C249.706 95.0912 251.202 99.1001 251.612 100.151V100.116ZM243.363 84.6858C243.749 84.7999 244.155 84.8318 244.555 84.7795C244.954 84.7272 245.338 84.5917 245.683 84.3819C246.027 84.1721 246.323 83.8926 246.552 83.5614C246.782 83.2301 246.94 82.8545 247.015 82.4586C247.015 82.227 247.496 82.3517 247.461 82.5833C246.944 85.8439 243.897 85.5945 243.309 84.8105C243.273 84.7927 243.309 84.7214 243.363 84.7214V84.6858ZM243.256 94.7705C245.282 95.0631 247.34 95.0631 249.367 94.7705C248.552 96.8099 247.908 98.9137 247.443 101.06C246.908 100.704 243.772 98.8863 242.81 98.2449C242.828 98.2093 243.184 96.0534 243.256 94.8061V94.7705ZM242.579 98.4944C243.414 99.277 244.335 99.9643 245.322 100.543C246.873 106.477 254.231 128.944 255.674 134.397C253.447 131.225 241.563 118.361 238.587 114.548C239.448 112.631 240.186 110.661 240.797 108.65C239.237 108.045 237.619 107.604 235.968 107.332C237.756 104.787 239.177 102.004 240.191 99.0645C240.922 98.8151 242.579 98.4944 242.579 98.4944ZM208.565 138.797C210.139 129.897 214.14 121.604 220.129 114.833C223.001 111.603 226.142 108.623 229.518 105.924C232.541 103.125 236.01 100.848 239.781 99.1892C238.231 101.844 236.752 105.016 235.06 107.617C234.917 107.849 238.748 108.579 240.28 109.114C239.942 109.684 238.409 113.639 237.964 114.708C237.964 114.833 253.287 131.991 256.084 135.929C255.853 138.673 257.438 153.247 257.456 153.265C255.799 154.281 254.035 155.439 252.449 156.544C252.307 156.544 252.841 157.488 253.002 157.827C252.342 158.156 251.619 158.338 250.881 158.361C251.077 154.566 250.739 150.165 247.496 147.671C246.073 146.647 244.397 146.031 242.65 145.889C239.817 145.532 236.984 145.372 234.151 144.962C232.939 144.784 231.71 144.57 230.498 144.339V144.232C229.514 138.785 229.132 133.246 229.358 127.715C229.358 127.572 229.126 127.519 229.091 127.715C228.433 133.238 228.698 138.831 229.875 144.267C222.623 142.896 215.621 140.829 208.494 138.78L208.565 138.797ZM195.647 135.234C195.816 134.391 196.292 133.642 196.984 133.132C197.524 132.785 198.16 132.619 198.8 132.658C199.441 132.696 200.052 132.937 200.547 133.345C201.09 133.81 201.48 134.427 201.668 135.117C201.855 135.806 201.831 136.536 201.598 137.212C201.349 138.049 200.013 140.526 198.944 138.548C199.008 138.404 199.061 138.255 199.104 138.103C199.278 137.332 199.409 136.553 199.496 135.769C199.282 136.481 199.157 137.247 198.908 137.942C198.852 138.163 198.751 138.369 198.609 138.547C198.468 138.725 198.29 138.871 198.088 138.976C197.518 139.172 197.091 138.726 196.877 138.245C197.221 137.177 197.43 136.069 197.5 134.949C197.398 136.124 197.084 137.271 196.574 138.334C196.217 138.976 195.54 139.047 195.309 138.334C195.265 138.093 195.265 137.845 195.309 137.604C195.334 136.798 195.447 135.997 195.647 135.216V135.234ZM170.382 131.67C170.542 131.831 170.685 132.009 170.845 132.205C170.847 132.232 170.856 132.258 170.872 132.28C170.888 132.302 170.909 132.32 170.934 132.33C171.307 132.806 171.596 133.342 171.79 133.915C172.021 134.628 172.502 136.392 171.024 135.697C170.577 135.066 170.083 134.47 169.545 133.915C169.438 133.915 169.545 133.915 169.545 133.915C169.865 134.486 172.413 137.996 169.545 137.212C169.271 136.385 168.835 135.622 168.262 134.967C168.23 134.944 168.192 134.933 168.154 134.934C168.115 134.935 168.078 134.949 168.048 134.973C168.018 134.997 167.996 135.031 167.987 135.068C167.977 135.105 167.98 135.145 167.995 135.181C168.351 136 170.346 139.065 167.995 138.245C166.655 137.455 165.673 136.178 165.251 134.682C164.977 134.012 164.954 133.267 165.185 132.582C165.415 131.897 165.885 131.317 166.508 130.95C167.13 130.582 167.864 130.451 168.576 130.58C169.287 130.709 169.928 131.09 170.382 131.653V131.67ZM101.197 92.2582C102.056 92.2556 102.907 92.428 103.697 92.765C104.487 93.1019 105.201 93.5964 105.794 94.2182C105.473 91.6524 101.589 87.9999 101.589 87.9999C97.0454 88.1068 98.0254 83.6168 98.0254 83.6168C98.2306 83.1436 98.5468 82.7269 98.9474 82.4019C99.3479 82.077 99.8209 81.8535 100.326 81.7504C100.832 81.6472 101.354 81.6674 101.85 81.8093C102.346 81.9512 102.8 82.2106 103.175 82.5655C103.175 83.1179 104.137 85.6479 105.527 85.7549C106.916 85.8618 106.417 87.3228 106.417 87.3228C106.417 87.3228 107.451 85.9865 106.417 85.2382C105.384 84.4898 105.295 82.5477 105.295 82.5477C111.139 82.0132 115.255 67.9552 115.255 67.9552C116.752 75.7414 125.197 75.884 125.197 75.884C125.211 80.5053 124.937 85.123 124.377 89.7103C124.135 91.0995 123.435 92.3678 122.389 93.3137C121.343 94.2595 120.011 94.8287 118.605 94.9309C118.605 94.9309 118.605 99.599 118.854 100.9C116.913 102.575 114.434 103.497 111.87 103.497C109.305 103.497 106.826 102.575 104.885 100.9V99.118C105.712 99.1755 106.543 99.1396 107.362 99.0111C102.373 98.0311 101.197 92.2582 101.197 92.2582ZM103.941 102.681C105.723 105.996 115.825 108.027 119.977 102.004C121.941 102.017 123.901 102.184 125.838 102.503C124.467 116.633 103.567 117.131 98.5955 105.033C100.324 104.214 102.123 103.448 103.941 102.681ZM72.6533 159.074C63.1209 145.247 70.1767 126.628 81.3126 115.973C86.2239 111.479 91.8711 107.863 98.0076 105.283C100.039 111.751 108.11 114.993 114.471 114.192C117.493 113.907 120.327 112.602 122.507 110.49C124.687 108.378 126.082 105.586 126.462 102.575C131.561 103.465 136.416 105.413 140.716 108.294C145.241 111.348 149.247 115.108 152.582 119.43C156.894 124.9 159.335 131.528 161.901 137.96C157.607 140.936 152.565 144.054 147.398 146.976C146.507 146.299 144.476 144.499 144.066 144.125C144.202 138.847 143.078 133.612 140.787 128.855H140.609C144.28 137.924 143.264 145.515 143.424 149.078C134.017 154.138 124.93 158.183 120.262 159.181C120.262 159.181 120.262 158.913 120.119 158.878C112.654 156.401 90.3995 148.472 90.3639 148.472C90.8245 145.491 91.1279 142.488 91.2726 139.475C91.2726 139.475 91.13 139.475 91.13 139.581C90.3639 142.521 90.257 145.711 89.7759 148.722C89.7668 148.776 89.7738 148.832 89.7959 148.883C89.8181 148.933 89.8544 148.977 89.9006 149.007C99.5933 153.194 109.821 156.134 119.87 159.323C120.106 162.721 119.95 166.135 119.406 169.497C103.602 170.94 83.1656 174.308 72.6533 159.074ZM146.845 147.296C145.847 147.867 144.832 148.419 143.834 148.953C143.941 147.617 144.012 146.21 144.03 144.766C144.877 145.706 145.821 146.554 146.845 147.296ZM120.458 161.853C121.049 162.104 121.686 162.233 122.328 162.233C122.971 162.233 123.607 162.104 124.199 161.853C125.518 161.158 126.177 159.715 127.371 158.842C127.449 159.816 127.184 160.787 126.622 161.586C126.498 161.746 126.622 161.942 126.872 161.925C128.083 162.103 130.596 161.622 131.469 162.334C132.698 163.314 128.315 163.742 127.193 163.884C127.014 163.884 127.068 164.17 127.193 164.187C128.578 164.179 129.955 163.957 131.273 163.528C132.324 166.201 127.887 165.595 127.05 165.898C127.014 165.91 126.983 165.932 126.961 165.963C126.939 165.993 126.927 166.03 126.927 166.067C126.927 166.105 126.939 166.141 126.961 166.172C126.983 166.202 127.014 166.225 127.05 166.236C128.088 166.307 129.132 166.235 130.15 166.023C131.095 168.25 122.382 169.996 120.19 167.038C120.433 165.321 120.522 163.586 120.458 161.853ZM93.2503 194.709C93.2503 194.602 93.4819 194.709 93.4641 194.709C93.0187 201.479 88.7425 229.025 87.4418 235.992C87.4418 236.188 87.1211 236.099 87.1567 235.992C88.0832 229.114 91.8962 201.551 93.2503 194.709ZM79.0854 239.84C80.9471 240.774 82.8629 241.595 84.8226 242.299C84.8226 242.816 84.9295 243.529 84.983 244.33C80.5642 243.903 76.3593 244.776 71.9584 244.473C71.9584 242.887 71.8337 239.965 71.8337 239.965C73.0275 239.929 76.395 239.858 79.0854 239.894V239.84ZM80.3861 244.972H84.8939C85.0542 247.128 85.2324 250.085 85.4106 253.257C83.8291 253.034 82.2284 252.981 80.6355 253.097C80.7211 250.405 80.6557 247.71 80.4395 245.025L80.3861 244.972ZM79.9406 253.079C79.7446 253.079 74.5954 253.079 72.2613 253.186C72.2613 251.048 71.9584 245.631 71.9584 245.061C74.5924 245.238 77.2353 245.238 79.8694 245.061C79.5531 247.744 79.5771 250.455 79.9406 253.132V253.079ZM10.6663 230.201C26.702 216.197 42.2389 202.905 58.6309 189.221C64.7067 194.566 71.4061 199.341 77.9273 204.205C75.9139 213.56 73.7045 223.805 72.4217 229.702C56.0118 229.987 20.6975 230.344 10.6663 230.201ZM13.6953 288.874C13.8087 286.382 13.6534 283.885 13.232 281.426C19.2009 282.139 72.8493 281.533 87.5665 281.302C87.6734 283.083 87.8516 285.489 88.0298 288.126C71.5308 288.126 25.8468 288.553 13.6953 288.874ZM54.4617 264.892C57.722 264.637 60.9955 264.595 64.2613 264.767C64.2613 264.767 64.2613 278.094 64.5463 280.981L54.8002 281.141C54.6576 275.564 54.8002 270.433 54.4617 264.892ZM98.1857 312.999C88.2792 314.692 82.4173 313.712 79.2992 313.908C79.1745 313.106 80.493 311.271 81.081 310.825C81.6689 310.38 89.3483 306.709 89.3483 306.709C91.7536 311.075 96.7247 308.972 98.257 308.206C98.659 309.802 98.659 311.474 98.257 313.07L98.1857 312.999ZM104.44 281.694C98.3104 284.384 92.2347 282.691 87.3705 278.326L87.5131 280.535L65.2056 280.892C65.4691 275.329 65.3083 269.753 64.7245 264.215C64.7245 264.215 57.1699 263.199 53.8024 264.09C53.6955 264.09 53.8915 275.493 54.034 281.07L20.1808 280.945C20.1808 280.945 19.575 247.609 18.6307 231.056C26.221 231.288 56.8492 230.7 72.3326 230.379L71.3882 234.709C73.3155 236.501 75.4725 238.029 77.8025 239.252C75.6971 239.031 73.5691 239.175 71.513 239.68C71.5016 239.721 71.5016 239.764 71.513 239.805C71.139 244.433 71.2106 249.087 71.7268 253.702C71.7268 253.702 71.8515 253.916 71.9406 253.916C74.15 254.059 83.0409 253.649 85.6422 254.023C86.052 261.382 86.5331 269.702 86.9964 272.553C86.9964 272.553 87.5131 278.13 87.6021 278.184C90.1144 279.965 96.3149 284.936 104.351 281.391C104.511 281.266 104.671 281.676 104.44 281.765V281.694ZM105.954 274.78C98.257 276.669 89.7046 273.391 87.5665 272.429C86.8538 267.226 86.4262 247.146 85.3393 242.513C94.0928 245.446 103.28 246.874 112.511 246.736C111.121 251.19 106.934 270.023 105.954 274.887V274.78ZM103.317 214.201C103.33 214.161 103.354 214.126 103.388 214.102C103.422 214.077 103.462 214.063 103.504 214.063C103.546 214.063 103.587 214.077 103.62 214.102C103.654 214.126 103.679 214.161 103.691 214.201C103.691 220.33 103.887 226.477 103.691 232.606C103.691 232.785 103.406 232.785 103.388 232.606C103.121 226.566 103.299 220.419 103.317 214.308V214.201ZM116.912 176.214C112.921 176.428 93.7492 177.319 88.2436 174.611H88.1545C86.752 173.167 85.9062 171.273 85.767 169.265C86.5153 169.533 87.2992 169.764 88.0654 169.978C97.669 172.49 107.665 171.011 117.34 170.138C117.066 172.182 116.923 174.241 116.912 176.303V176.214ZM136.101 276.865C134.32 271.751 129.117 250.709 126.961 245.774C128.743 245.56 132.538 244.901 133.874 244.669C135.656 248.393 137.794 251.992 139.754 255.609C141.714 259.226 143.798 263.11 145.954 266.763C147.736 269.702 149.518 272.589 151.496 275.368C145.527 279.556 138.453 277.738 136.101 276.954V276.865ZM161.954 311.841C156.306 311.965 151.816 312.411 145.919 312.09C145.5 310.14 145.433 308.131 145.723 306.157C151.246 310.736 153.456 304.785 153.456 304.785C154.685 305.925 161.901 309.257 161.954 311.93V311.841ZM233.011 293.132C237.019 294.308 242.668 293.542 246.623 292.723C246.445 294.201 247.603 299.529 241.064 300.277C232.904 301.328 233.367 294.611 233.011 293.221V293.132ZM238.498 309.364C236.236 309.738 227.256 311.146 226.632 307.351C227.308 307.804 228.099 308.057 228.913 308.081C232.013 308.331 246.926 305.622 247.763 304.625C248.708 308.562 240.939 309.061 238.498 309.453V309.364ZM247.763 304.233C246.819 305.106 234.561 307.279 232.031 307.475C229.501 307.671 225.046 308.063 226.917 304.197C227.31 303.42 227.808 302.701 228.396 302.059C229.132 302.788 229.912 303.472 230.73 304.108C230.944 304.251 231.158 304.001 231.051 303.787C230.492 302.887 229.688 302.164 228.734 301.703C229.251 301.168 229.839 300.634 230.427 300.135C230.783 300.42 232.048 301.81 232.44 302.041C232.481 302.065 232.527 302.076 232.573 302.072C232.62 302.069 232.664 302.052 232.701 302.023C232.737 301.994 232.764 301.955 232.778 301.91C232.792 301.866 232.792 301.818 232.779 301.774C232.384 300.909 231.705 300.205 230.855 299.778L232.155 298.727C233.1 299.333 233.937 300.081 234.864 300.723C234.988 300.723 235.149 300.723 235.06 300.544C234.357 299.666 233.469 298.954 232.458 298.46C232.811 298.172 233.18 297.904 233.563 297.658C234.351 298.687 235.368 299.519 236.533 300.088C237.698 300.656 238.979 300.946 240.276 300.934C241.572 300.922 242.848 300.608 244.002 300.018C245.156 299.428 246.157 298.577 246.926 297.533C248.209 298.887 247.763 303.164 247.763 304.322V304.233ZM250.881 232.589C249.527 249.64 229.679 282.727 229.679 282.727V283.155C219.416 298.05 205.785 306.959 200.494 311.217C193.046 308.99 186.347 304.66 179.95 300.348C173.067 295.941 166.597 290.919 160.618 285.346C154.929 279.53 150.051 272.974 146.115 265.854C141.981 258.727 138.489 251.279 134.177 244.313C132.395 240.5 118.373 208.393 117.642 176.268C117.805 174.252 117.835 172.229 117.731 170.21L119.406 170.067C119.517 169.997 119.599 169.89 119.638 169.764C119.838 169.038 119.993 168.3 120.101 167.555C121.052 168.218 122.138 168.662 123.282 168.853C124.425 169.044 125.597 168.978 126.712 168.66C128.012 168.374 131.219 167.769 130.56 165.791C130.762 165.715 130.954 165.613 131.13 165.488C131.316 165.393 131.476 165.254 131.596 165.083C131.716 164.912 131.793 164.715 131.819 164.507C131.846 164.3 131.821 164.09 131.747 163.894C131.674 163.699 131.554 163.524 131.397 163.386C132.039 163.065 132.324 162.619 131.825 161.996C131.558 161.773 131.247 161.609 130.912 161.514C130.578 161.419 130.227 161.395 129.883 161.443C128.93 161.431 127.977 161.491 127.032 161.622C127.674 160.731 128.012 157.666 127.139 158.201C126.34 158.819 125.643 159.558 125.072 160.392C123.736 161.925 122.186 161.764 120.368 161.479C120.368 160.855 120.368 160.232 120.208 159.697C123.795 159.243 127.275 158.163 130.489 156.508C134.658 154.726 154.881 145.408 165.429 136.214C165.705 136.837 166.107 137.396 166.61 137.856C167.113 138.316 167.706 138.667 168.351 138.887C169.527 139.154 169.741 138.477 169.563 137.622C169.69 137.713 169.837 137.774 169.992 137.797C170.147 137.82 170.305 137.806 170.453 137.755C170.602 137.704 170.736 137.619 170.844 137.506C170.953 137.393 171.033 137.255 171.077 137.105C171.21 136.736 171.21 136.333 171.077 135.964C171.718 136.303 172.182 136.356 172.378 135.59C172.443 134.969 172.382 134.341 172.198 133.744C172.014 133.147 171.712 132.593 171.309 132.116C172.574 131.118 173.75 130.031 174.997 129.016C177.545 126.984 180.663 129.354 183.211 130.441C187.095 132.116 195.042 135.519 195.095 135.448C194.982 135.923 194.898 136.405 194.846 136.891C194.846 137.55 194.471 138.815 195.327 139.154C195.879 139.368 196.289 139.047 196.574 138.512C196.625 138.69 196.718 138.853 196.843 138.989C196.968 139.124 197.123 139.229 197.296 139.295C197.469 139.36 197.654 139.385 197.838 139.367C198.022 139.349 198.199 139.288 198.356 139.189C198.49 139.102 198.611 138.994 198.712 138.869C199.193 139.653 200.084 140.08 200.814 139.368C201.393 138.812 201.812 138.11 202.026 137.336C211.085 140.503 220.363 143.004 229.786 144.82C234.258 145.657 238.819 145.818 243.291 146.602C249.314 147.617 250.614 153.051 250.418 158.361C249.984 158.338 249.554 158.266 249.135 158.147C248.214 157.862 247.309 157.523 246.427 157.132C246.427 157.132 246.32 157.132 246.32 157.239C246.141 157.944 246.197 158.689 246.481 159.359C246.642 159.882 246.991 160.326 247.461 160.606C246.405 161.156 245.467 161.907 244.699 162.815C244.182 163.35 242.739 164.597 242.917 165.488C243.095 166.379 244.022 166.129 244.699 165.933C244.626 166.093 244.596 166.267 244.609 166.442C244.623 166.616 244.68 166.784 244.776 166.93C244.873 167.076 245.004 167.195 245.159 167.276C245.313 167.357 245.486 167.398 245.661 167.395H246.213C247.318 168.642 248.922 167.608 250.044 166.878L251.523 165.933C251.523 170.192 252.182 174.468 252.574 178.709C252.859 181.969 253.002 185.283 253.429 188.544C254.285 213.025 252.218 215.662 250.881 232.678V232.589ZM254.035 188.419C253.804 184.856 253.305 181.292 253.002 177.729C252.645 173.684 252.503 169.55 251.861 165.541C253.238 164.661 254.501 163.613 255.621 162.423C256.53 163.867 257.492 165.274 258.347 166.646C258.588 166.794 258.853 166.897 259.131 166.949C258.81 170.513 260.539 184.214 261.18 189.096C257.723 188.989 255.158 188.669 254.035 188.508V188.419ZM261.519 189.132C261.144 184.179 260.182 170.513 259.737 166.949C272.316 166.753 285.679 163.279 294.748 154.281C294.944 159.84 296.672 176.481 296.761 179.225C296.89 180.075 296.802 180.943 296.506 181.749C296.21 182.556 295.716 183.275 295.069 183.84C283.844 189.363 270.089 189.702 261.519 189.221V189.132ZM286.463 307.19C283.594 308.491 277.821 311.021 275.897 307.404C276.904 307.492 277.918 307.395 278.891 307.119C284.22 306.091 289.257 303.901 293.643 300.705C295.586 302.825 287.585 306.727 286.374 307.279L286.463 307.19ZM293.465 300.259C289.34 303.338 284.57 305.439 279.514 306.406C277.928 306.727 275.38 307.351 275.06 305.23C275.112 304.446 275.397 303.695 275.879 303.075C276.075 302.718 276.307 302.38 276.539 302.041C277.182 302.384 277.742 302.865 278.178 303.449C278.374 303.591 278.552 303.324 278.481 303.146C278.085 302.496 277.492 301.991 276.788 301.703C277.127 301.239 277.483 300.794 277.839 300.348C279.104 300.865 279.443 301.863 279.817 302.13C280.191 302.397 280.138 302.13 280.084 301.934C279.635 301.113 278.953 300.444 278.124 300.01L279.033 298.905C280.387 299.743 280.815 300.83 281.207 301.204C281.367 301.328 281.688 301.204 281.599 300.972C281.124 299.947 280.363 299.081 279.407 298.478L280.352 297.302C282.454 300.865 290.543 299.083 290.846 294.985C291.862 296.687 292.709 298.483 293.376 300.348L293.465 300.259ZM289.545 290.353C289.902 291.671 292.485 297.284 285.59 298.531C280.797 299.404 278.962 293.685 278.855 293.453C282.589 293.378 286.24 292.34 289.456 290.442L289.545 290.353ZM335.229 263.092C334.392 262.718 334.392 262.005 334.089 261.31C333.688 260.155 333.156 259.049 332.503 258.014C329.563 254.094 323.595 255.163 319.799 257.301C318.855 257.868 318.055 258.645 317.461 259.572C316.868 260.5 316.497 261.552 316.378 262.647C316.357 263.124 316.31 263.6 316.236 264.072C315.897 265.266 315.63 265.23 314.347 265.391C312.69 265.604 297.688 266.638 289.207 266.887C287.871 259.083 286.552 251.35 285.982 248.197C285.135 244.648 284.996 240.967 285.572 237.364C287.734 234.129 289.375 230.576 290.436 226.834C295.977 226.459 308.254 225.39 311.39 226.21C315.292 227.279 317.376 230.593 318.819 234.121C320.263 237.649 321.367 241.569 322.615 245.079C322.615 245.221 322.989 245.293 323.042 245.293C326.142 245.293 329.314 244.847 332.414 244.705C335.514 244.562 339.684 243.386 342.321 245.346C344.251 247.148 345.455 249.595 345.706 252.224C346.323 255.663 346.621 259.152 346.597 262.647C343.461 262.54 335.728 263.324 335.229 263.092Z" fill="black"/>
<path d="M330.186 272.215C330.789 271.734 331.288 271.136 331.653 270.456C332.018 269.776 332.24 269.03 332.307 268.261C332.373 267.493 332.283 266.719 332.041 265.986C331.799 265.254 331.41 264.578 330.899 264.001C329.8 262.627 328.271 261.664 326.558 261.266C324.844 260.868 323.047 261.06 321.456 261.81C317.785 263.983 318.89 268.562 320.565 270.879C322.489 273.516 327.549 273.997 330.186 272.215ZM321.741 262.415C322.813 261.894 324.008 261.676 325.195 261.786C326.383 261.896 327.517 262.329 328.476 263.039C330.97 264.66 332.538 268.509 330.257 270.968C328.476 272.874 324.164 272.749 322.186 271.235C318.373 268.366 319.763 263.377 321.741 262.415Z" fill="black"/>
</svg>
