<svg width="321" height="235" viewBox="0 0 321 235" fill="none" xmlns="http://www.w3.org/2000/svg">
<path d="M245.299 219.058C235.572 211.132 248.751 210.202 256.557 210.727V215.906L275.245 220.634C269.316 223.411 255.025 226.983 245.299 219.058Z" fill="#A0A0A0"/>
<path d="M296.408 214.33C290.104 215.05 288.227 212.228 288.077 210.727H301.587C302.487 211.628 302.712 213.609 296.408 214.33Z" fill="#A0A0A0"/>
<path d="M282.225 192.489C275.245 192.489 271.417 192.039 265.788 191.588" stroke="#A0A0A0" stroke-width="1.872" stroke-linecap="round"/>
<path d="M287.625 195.191V216.807" stroke="#A0A0A0" stroke-width="1.872" stroke-linecap="round"/>
<path d="M271.415 196.317L256.555 195.191" stroke="#A0A0A0" stroke-width="1.872" stroke-linecap="round"/>
<path d="M278.396 198.568V220.409" stroke="#A0A0A0" stroke-width="1.872" stroke-linecap="round"/>
<path d="M278.17 220.859L287.627 217.031" stroke="#A0A0A0" stroke-width="1.872" stroke-linecap="round"/>
<path d="M265.561 191.588L256.555 195.191" stroke="#A0A0A0" stroke-width="1.872" stroke-linecap="round"/>
<path d="M256.331 195.417V216.131" stroke="#A0A0A0" stroke-width="1.872" stroke-linecap="round"/>
<path d="M256.106 215.906L278.172 220.859" stroke="#A0A0A0" stroke-width="1.872" stroke-linecap="round"/>
<path d="M282.224 192.94V186.635" stroke="#A0A0A0" stroke-width="1.872" stroke-linecap="round"/>
<path d="M301.812 210.502V188.662" stroke="#A0A0A0" stroke-width="1.872" stroke-linecap="round"/>
<path d="M312.394 181.456V205.773" stroke="#A0A0A0" stroke-width="1.872" stroke-linecap="round"/>
<path d="M301.812 210.952L312.394 205.773" stroke="#A0A0A0" stroke-width="1.872" stroke-linecap="round"/>
<path d="M312.394 181.232L288.527 180.331" stroke="#A0A0A0" stroke-width="1.872" stroke-linecap="round"/>
<path d="M282.224 186.635L288.528 180.331" stroke="#A0A0A0" stroke-width="1.872" stroke-linecap="round"/>
<path d="M301.812 188.437L312.169 181.682" stroke="#A0A0A0" stroke-width="1.872" stroke-linecap="round"/>
<path d="M301.812 210.502H288.527" stroke="#A0A0A0" stroke-width="1.872" stroke-linecap="round"/>
<path d="M282.448 186.635L295.282 187.086" stroke="#A0A0A0" stroke-width="1.872" stroke-linecap="round"/>
<path d="M102.532 228.535C102.757 222.231 127.975 224.257 129.551 224.483V228.535L137.207 233.939C125.573 234.239 102.352 233.579 102.532 228.535Z" fill="#A0A0A0"/>
<path d="M165.125 227.86V204.894" stroke="#A0A0A0" stroke-width="1.872" stroke-linecap="round"/>
<path d="M145.535 233.714V208.496" stroke="#A0A0A0" stroke-width="1.872" stroke-linecap="round"/>
<path d="M129.325 227.86V202.642" stroke="#A0A0A0" stroke-width="1.872" stroke-linecap="round"/>
<path d="M129.325 202.642L147.113 198.139" stroke="#A0A0A0" stroke-width="1.872" stroke-linecap="round"/>
<path d="M165.124 204.669L145.535 208.271" stroke="#A0A0A0" stroke-width="1.872" stroke-linecap="round"/>
<path d="M145.535 233.94L165.124 228.085" stroke="#A0A0A0" stroke-width="1.872" stroke-linecap="round"/>
<path d="M165.125 204.669L147.112 198.139" stroke="#A0A0A0" stroke-width="1.872" stroke-linecap="round"/>
<path d="M129.325 202.867L145.762 208.271" stroke="#A0A0A0" stroke-width="1.872" stroke-linecap="round"/>
<path d="M187.076 227.409C182.933 220.204 196.157 219.154 203.287 219.529V224.708L226.478 227.409C215.07 230.412 191.219 234.615 187.076 227.409Z" fill="#A0A0A0"/>
<path d="M237.963 217.727L229.182 226.734" stroke="#A0A0A0" stroke-width="1.872" stroke-linecap="round"/>
<path d="M227.154 199.265L204.413 197.688" stroke="#A0A0A0" stroke-width="1.872" stroke-linecap="round"/>
<path d="M213.643 191.834L237.96 192.96" stroke="#A0A0A0" stroke-width="1.872" stroke-linecap="round"/>
<path d="M203.964 197.688L202.838 223.807" stroke="#A0A0A0" stroke-width="1.872" stroke-linecap="round"/>
<path d="M237.961 193.41V217.277" stroke="#A0A0A0" stroke-width="1.872" stroke-linecap="round"/>
<path d="M229.182 207.596V226.734" stroke="#A0A0A0" stroke-width="1.872" stroke-linecap="round"/>
<path d="M203.965 197.688L213.647 191.834" stroke="#A0A0A0" stroke-width="1.872" stroke-linecap="round"/>
<path d="M229.181 226.734L202.612 224.032" stroke="#A0A0A0" stroke-width="1.872" stroke-linecap="round"/>
<path d="M182.38 58.6601C183.356 58.3598 185.937 58.0747 188.459 59.3356" stroke="black" stroke-width="1.872" stroke-linecap="round"/>
<path d="M173.373 70.3678C175.114 70.3678 176.525 68.8557 176.525 66.9904C176.525 65.1251 175.114 63.613 173.373 63.613C171.632 63.613 170.221 65.1251 170.221 66.9904C170.221 68.8557 171.632 70.3678 173.373 70.3678Z" fill="black"/>
<path d="M199.044 74.8714C200.785 74.8714 202.196 73.3593 202.196 71.4941C202.196 69.6288 200.785 68.1167 199.044 68.1167C197.303 68.1167 195.892 69.6288 195.892 71.4941C195.892 73.3593 197.303 74.8714 199.044 74.8714Z" fill="black"/>
<path d="M165.718 61.5867C165.943 60.1605 167.339 57.4438 171.122 57.9842" stroke="black" stroke-width="1.872" stroke-linecap="round"/>
<path d="M194.539 61.1362C196.34 59.5601 200.843 57.3536 204.446 61.1362" stroke="black" stroke-width="1.872" stroke-linecap="round"/>
<path d="M184.857 64.9644C186.958 68.4169 189.9 75.817 184.857 77.7984L182.38 78.699" stroke="black" stroke-width="1.872" stroke-linecap="round"/>
<path d="M176.304 85.6787C176.829 87.1049 178.825 89.4614 182.608 87.48" stroke="black" stroke-width="1.872" stroke-linecap="round"/>
<path d="M103.802 52.5807C96.4164 76.8978 116.935 94.5353 128.119 100.314C138.206 94.1899 152.586 91.0827 158.74 90.1821C151.085 83.8777 148.758 72.3194 148.158 66.9908C144.105 68.3418 133.297 63.1631 138.251 52.5807C142.214 44.1148 146.506 48.4527 148.158 51.6801L159.19 56.6336C159.19 46.3663 166.245 42.8989 169.773 42.4486C171.934 41.0076 174.276 36.2941 175.177 34.1177C176.257 42.5837 187.335 48.753 192.739 50.7794C199.764 45.1955 205.423 48.4527 207.374 50.7794L212.328 50.104C222.01 46.8018 239.392 35.5137 231.466 16.7806C223.541 -1.95258 207.149 1.46982 199.944 5.52267C175.267 -10.8688 150.484 13.1028 141.178 27.1378C131.796 25.4865 111.187 28.2636 103.802 52.5807Z" fill="black"/>
<path d="M158.965 56.8584L148.157 51.2295" stroke="black" stroke-width="1.872" stroke-linecap="round"/>
<path d="M182.156 56.4087C182.156 64.1744 176.848 70.1434 170.673 70.1434C164.497 70.1434 159.189 64.1744 159.189 56.4087C159.189 48.6426 164.497 42.6741 170.673 42.6741C176.848 42.6741 182.156 48.6426 182.156 56.4087Z" stroke="black" stroke-width="1.872"/>
<path d="M211.878 61.3616C211.878 69.1273 206.571 75.0962 200.395 75.0962C194.22 75.0962 188.912 69.1273 188.912 61.3616C188.912 53.5954 194.22 47.627 200.395 47.627C206.571 47.627 211.878 53.5954 211.878 61.3616Z" stroke="black" stroke-width="1.872"/>
<path d="M212.328 104.766C229.62 90.896 219.758 72.193 212.553 64.4624C208.591 83.1956 199.419 91.2562 195.441 93.0575L201.746 96.4349L212.328 104.766Z" fill="black"/>
<path d="M149.508 56.4087C149.133 52.2806 144.33 42.4489 139.151 51.6803C136.899 55.8831 135.278 64.8746 146.806 67.2162" stroke="black" stroke-width="1.872" stroke-linecap="round"/>
<path d="M145.681 54.8323C144.63 55.7329 143.069 58.0746 145.23 60.2361" stroke="black" stroke-width="1.872" stroke-linecap="round"/>
<path d="M210.976 66.54C209.715 73.7451 206.922 80.2715 203.995 84.3275C202.165 86.8637 199.2 90.065 195.419 92.8556" stroke="black" stroke-width="1.872" stroke-linecap="round"/>
<path d="M147.933 67.2161C147.783 76.3723 151.356 89.957 167.748 97.1621C170.269 98.2703 172.748 98.9062 175.157 99.1624" stroke="black" stroke-width="1.872" stroke-linecap="round"/>
<path d="M193.864 108.195C190.261 107.294 186.809 110.221 185.533 111.797C184.857 113.224 184.542 116.03 188.685 115.85C193.864 115.625 195.44 108.195 201.519 120.128C206.382 129.675 206.698 148.423 206.247 156.604" stroke="black" stroke-width="1.872" stroke-linecap="round" stroke-linejoin="round"/>
<path d="M182.077 105.718C180.902 108.269 179.949 113.058 185.533 111.797" stroke="black" stroke-width="1.872" stroke-linecap="round" stroke-linejoin="round"/>
<path d="M184.25 96.9368C181.098 98.2877 176.526 103.151 178.327 106.393C178.552 106.769 179.228 107.474 180.128 107.294C180.523 107.215 181.166 106.529 182.077 105.718C183.767 104.214 186.378 102.285 190.035 103.016" stroke="black" stroke-width="1.872" stroke-linecap="round" stroke-linejoin="round"/>
<path d="M247.258 174.251C249.51 163.218 247.316 137.33 219.757 112.472L201.519 96.4861L190.036 90.4069L187.785 89.9565L179.229 91.983L178.328 92.8836L175.401 98.2874C174.95 99.4132 176.887 100.719 180.129 99.6383" stroke="black" stroke-width="1.872" stroke-linecap="round" stroke-linejoin="round"/>
<path d="M158.064 91.0823C143.428 93.0335 105.435 101.423 82.4106 135.438C60.7108 167.496 85.253 181.006 103.491 181.681" stroke="black" stroke-width="1.872" stroke-linecap="round" stroke-linejoin="round"/>
<path d="M0.935547 186.185L102.482 181.231" stroke="black" stroke-width="1.872" stroke-linecap="round" stroke-linejoin="round"/>
<path d="M130.177 180.106L319.377 171.863" stroke="black" stroke-width="1.872" stroke-linecap="round"/>
<path d="M113.309 182.028C113.588 182.891 113.383 183.512 112.298 183.605C109.089 183.88 105.277 178.905 103.773 176.383" stroke="black" stroke-width="1.872" stroke-linecap="round"/>
<path d="M113.302 172.256C114.904 174.815 117.697 178.759 120.146 180.996C119.922 182.715 118.242 185.329 113.31 182.028C112.559 179.698 108.287 175.602 108.287 175.351" stroke="black" stroke-width="1.872" stroke-linecap="round"/>
<path d="M117.646 169.85C120.71 173.231 126.271 180.476 123.998 182.401C123.595 182.743 123.081 182.775 122.493 182.576C121.794 182.337 120.989 181.769 120.144 180.996C117.695 178.759 114.902 174.816 113.3 172.257" stroke="black" stroke-width="1.872" stroke-linecap="round"/>
<path d="M92.459 178.661C97.5849 172.242 113.971 158.328 123.332 166.754C127.065 170.479 131.718 177.213 129.043 179.964C127.706 180.995 124.811 179.62 122.944 176.869" stroke="black" stroke-width="1.872" stroke-linecap="round"/>
<path d="M110.719 142.053C107.491 144.605 102.433 151.24 108.017 157.364" stroke="black" stroke-width="1.872" stroke-linecap="round"/>
</svg>
