<svg width="393" height="361" viewBox="0 0 393 361" fill="none" xmlns="http://www.w3.org/2000/svg">
<rect width="393" height="360.579" fill="white"/>
<path d="M290.747 92.7139C291.048 91.1882 290.868 89.5969 290.228 88.142C289.588 86.6872 288.517 85.4345 287.152 84.543C282.102 81.0264 276.142 82.4791 271.199 85.9766C270.564 84.753 269.827 83.5781 268.996 82.4635C266.041 78.7 261.126 76.9781 256.714 79.594C254.963 80.7683 253.5 82.2903 252.42 84.0614C251.34 85.8325 250.667 87.8132 250.444 89.8752C249.998 94.5923 253.61 101.198 256.528 105.234C258.381 107.76 260.461 110.127 262.743 112.31C262.867 112.434 263.025 112.522 263.198 112.562C263.371 112.603 263.551 112.594 263.715 112.537C268.93 110.67 277.694 107.293 282.3 104.209C285.551 102.318 288.113 99.5258 289.661 96.1861C290.146 95.0705 290.509 93.9072 290.747 92.7139Z" fill="#48A6A7"/>
<path d="M175.941 238.794L145.624 241.718L181.18 247.565L212.534 244.641L175.941 238.794Z" fill="black"/>
<path d="M137.087 241.312L181.785 248.075M137.087 241.312V304.604C137.087 304.824 137.231 305.018 137.441 305.083L181.785 318.705M137.087 241.312L174.411 239.038M181.785 248.075L225.396 244.438C225.667 244.416 225.907 244.614 225.936 244.885L232.425 306.328C232.451 306.579 232.287 306.811 232.041 306.869L181.785 318.705M181.785 248.075V318.705" stroke="black" stroke-width="2.0051" stroke-linecap="round"/>
<path d="M229.773 342.343C224.698 348.969 242.458 356.961 252.216 354.768C241.482 348.921 242.539 344.292 242.946 342.343C240.669 339.581 234.847 335.716 229.773 342.343Z" fill="#48A6A7"/>
<path d="M246.38 330.971C244.167 335.941 241.068 346.733 246.38 350.141C253.02 354.401 255.234 356.531 262.98 355.466C270.727 354.401 272.94 353.336 268.513 350.141C264.087 346.946 259.797 341.718 260.903 328.938" stroke="black" stroke-width="2.0051" stroke-linecap="round"/>
<path d="M212.193 122.338C224.232 99.7545 214.976 90.1358 209.311 85.7927C209.981 102.895 198.694 112.081 192.706 114.43V119.901C193.765 118.515 206.872 119.319 212.193 122.338Z" fill="black"/>
<path d="M135.862 114.013C143.888 121.606 150.769 121.498 153.904 121.85C165.518 121.85 170.639 120.678 174.972 119.115L172.214 110.909C166.419 106.741 162.924 100.027 161.579 96.8431C160.069 98.1151 157.945 98.3538 156.852 96.8431C155.975 96.0094 154.155 92.912 154.489 88.2471C154.822 83.5824 157.639 84.1054 159.298 85.3147L167.588 86.204C167.239 78.4916 172.014 75.9179 174.444 75.5952C172.534 71.323 175.951 69.4537 177.749 68.7195C180.329 71.8671 183.709 73.135 185.139 73.7248C199.686 77.5141 208.566 72.3263 212.665 65.8515C217.114 59.3152 216.394 43.9664 203.807 40.23C199.691 38.653 189.934 37.3601 183.831 44.8033C165.864 38.2293 157.36 57.0444 155.028 63.8767L152.332 70.1061C128.917 75.0651 126.857 97.1148 130.97 106.771C132.834 111.15 133.079 111.381 135.738 113.896L135.862 114.013Z" fill="black"/>
<path d="M167.023 86.6017C168.005 92.1355 172.817 95.7676 177.626 94.931C182.435 94.0943 185.709 89.0555 184.727 83.5217C183.746 77.9878 178.934 74.3558 174.125 75.1924C169.316 76.0293 166.042 81.0679 167.023 86.6017Z" stroke="black" stroke-width="2.0051"/>
<path d="M192.854 86.6017C193.676 92.1356 197.708 95.7676 201.737 94.931C205.767 94.0943 208.509 89.0555 207.687 83.5217C206.865 77.9878 202.833 74.3558 198.804 75.1924C194.774 76.0293 192.032 81.0679 192.854 86.6017Z" stroke="black" stroke-width="2.0051"/>
<path d="M191.732 84.8188L184.902 85.7934" stroke="black" stroke-width="2.0051" stroke-linecap="round"/>
<path d="M191.732 106.745C190.224 109.081 186.454 110.795 183.438 106.745" stroke="black" stroke-width="2.0051" stroke-linecap="round"/>
<path d="M188.805 93.1018C190.889 97.6201 191.554 99.8792 189.558 101.385" stroke="black" stroke-width="2.0051" stroke-linecap="round"/>
<path d="M203.269 92.8524C201.796 93.1107 200.393 92.1281 200.135 90.6576C199.876 89.1872 200.86 87.7858 202.332 87.5275C203.804 87.2692 205.208 88.2518 205.466 89.7222C205.725 91.1927 204.741 92.594 203.269 92.8524Z" fill="black"/>
<path d="M180.67 93.5237C179.198 93.782 177.795 92.7994 177.536 91.329C177.277 89.8586 178.261 88.4572 179.734 88.1989C181.206 87.9406 182.609 88.9232 182.868 90.3936C183.126 91.864 182.142 93.2654 180.67 93.5237Z" fill="black"/>
<path d="M158.423 90.5945C158.684 90.9467 159.286 91.7591 159.606 92.1916" stroke="black" stroke-width="2.0051" stroke-linecap="round"/>
<path d="M204.918 72.1492C211.243 85.5079 211.93 96.3887 198.741 110.015C185.552 123.641 171.413 110.861 165.992 102.768L162.457 97.5221" stroke="black" stroke-width="2.0051" stroke-linecap="round"/>
<path d="M166.31 85.0813L160.471 85.2782" stroke="black" stroke-width="2.0051" stroke-linecap="round"/>
<path d="M229.793 153.522C234.268 158.685 239.589 177.815 225.884 191.042" stroke="#48A6A7" stroke-width="2.0051" stroke-linecap="round"/>
<path d="M222.226 137.686C222.226 124.043 204.353 118.759 192.917 120.76C189.596 123.237 181.12 126.705 173.786 120.76C168.074 121.413 155.692 124.44 151.866 131.325C142.167 147.364 137.119 189.612 167.808 200.957" stroke="#48A6A7" stroke-width="2.0051" stroke-linecap="round"/>
<path d="M168.311 153.522C172.107 159.442 173.479 168.263 173.251 174.087C173.236 174.487 173.709 174.738 174.039 174.511C183.115 168.273 202.756 169.525 207.397 172.89C211.231 175.67 208.437 179.452 206.174 181.866C199.935 188.516 190.378 194.962 184.168 197.864" stroke="#48A6A7" stroke-width="2.0051" stroke-linecap="round"/>
<path d="M231.594 143.463C234.872 145.444 232.345 154.636 230.979 158.318L229.791 157.901L230.123 156.46L230.012 155.018C229.398 153.494 225.851 152.352 223.803 155.018C221.8 157.625 219.257 159.858 217.869 160.413C212.461 163.308 213.431 158.572 214.592 155.843C215.274 154.573 217.214 150.243 217.869 146.13C218.525 142.016 221.351 141.559 222.99 141.368C224.493 141.242 228.316 141.483 231.594 143.463Z" fill="black"/>
<path d="M221.98 138.46C223.2 138.279 224.676 138.645 225.541 140.157C225.728 140.483 225.85 140.874 225.883 141.341" stroke="black" stroke-width="2.0051" stroke-linecap="round"/>
<path d="M215.996 154.984C214.787 154.159 214.236 152.921 213.2 150.814C212.164 147.97 211.564 146.32 210.921 143.939C210.783 143.175 210.289 141.1 212.164 140.884C213.821 140.693 214.028 142.03 214.236 142.985C214.857 146.32 217.607 145.723 217.607 143.431C217.607 141.139 217.607 139.305 216.905 136.557C216.535 135.109 215.591 132.083 218.988 132.083C221.428 132.083 221.621 134.316 221.98 138.135" stroke="black" stroke-width="2.0051" stroke-linecap="round"/>
<path d="M219.543 193.235C221.657 188.443 222.958 184.464 224.178 174.231" stroke="#48A6A7" stroke-width="2.0051" stroke-linecap="round"/>
<path d="M229.787 167.654C224.085 177.137 219.554 174.606 212.223 179.348" stroke="black" stroke-width="2.0051" stroke-linecap="round"/>
<path d="M204.906 168.628C205.582 165.006 208.959 162.764 210.479 156.21C211.002 153.958 211.662 151.898 213.688 152.071" stroke="black" stroke-width="2.0051" stroke-linecap="round"/>
<path d="M280.041 303.865C281.988 310.465 287.751 323.224 295.227 321.464C302.703 319.704 313.917 313.398 318.589 310.465C323.262 306.798 326.766 300.345 303.404 303.865C301.846 303.865 298.731 302.545 298.731 297.266" stroke="black" stroke-width="2.0051" stroke-linecap="round"/>
<path d="M142.372 223.737C132.06 226.528 120.89 242.734 116.594 250.488C123.038 249.713 137.646 245.603 144.52 235.368C151.394 225.133 145.952 223.349 142.372 223.737Z" fill="#48A6A7"/>
<path d="M137.708 196.477C127.366 197.535 119.928 223.438 116.594 235.383C124.002 229.24 138.597 216.954 142.153 212.858C148.821 205.18 147.709 195.453 137.708 196.477Z" fill="#48A6A7"/>
<path d="M105.847 188.195C100.212 197.355 112.422 211.118 118.058 220.278C118.058 214.51 118.058 202.444 118.058 197.355C118.057 189.213 109.916 181.581 105.847 188.195Z" fill="#48A6A7"/>
<path d="M118.058 240.256C110.394 229.545 94.0216 210.98 89.8414 222.405C84.6162 236.686 117.012 240.256 118.058 240.256Z" fill="#48A6A7"/>
<path d="M118.057 254.874L116.594 215.893" stroke="#48A6A7" stroke-width="2.0051" stroke-linecap="round"/>
<path d="M106.263 287.105C108.902 280.795 112.83 264.604 113.65 256.823H124.732C125.224 266.412 130.272 280.165 132.735 287.105C140.122 303.508 133.761 314.023 129.041 316.756H111.188C99.491 312.971 102.569 295.937 106.263 287.105Z" stroke="#48A6A7" stroke-width="2.0051"/>
<path d="M171.728 161.319C172.493 158.139 173.794 150.665 172.875 146.213" stroke="#48A6A7" stroke-width="2.0051" stroke-linecap="round"/>
<path d="M224.42 161.319C226.292 160.164 231.439 157.854 230.035 153.522" stroke="black" stroke-width="2.0051" stroke-linecap="round"/>
<path d="M225.883 165.704C227.021 165.271 229.298 163.755 230.274 162.781" stroke="black" stroke-width="2.0051" stroke-linecap="round"/>
<path d="M310.82 337.743C311.498 333.335 298.228 334.742 289.707 336.306C288.211 336.581 286.752 337.603 286.988 339.105C287.101 339.823 287.391 340.492 287.734 341.058C288.326 342.035 289.455 342.475 290.597 342.52C297.986 342.81 310.132 342.208 310.82 337.743Z" fill="#48A6A7"/>
<path d="M233.445 138.904L236.373 125.992" stroke="black" stroke-width="2.0051" stroke-linecap="round"/>
<path d="M237.35 143.29L256.378 132.814" stroke="black" stroke-width="2.0051" stroke-linecap="round"/>
<path d="M239.057 149.137H251.498" stroke="black" stroke-width="2.0051" stroke-linecap="round"/>
<path d="M238.675 39.9817C244.936 38.3575 259.118 37.789 265.753 48.5088C274.047 61.9086 274.535 65.8067 285.025 63.3704" stroke="#48A6A7" stroke-width="2.0051" stroke-linecap="round"/>
<path d="M269.559 166.15C276.958 167.043 293.807 165.906 302.004 154.212C310.201 142.518 316.803 141.706 319.08 142.761" stroke="#48A6A7" stroke-width="2.0051" stroke-linecap="round"/>
<path d="M163.919 23.9102C164.57 19.0376 163.334 8.12281 153.186 3.44507" stroke="#48A6A7" stroke-width="2.0051" stroke-linecap="round"/>
<path d="M70 94.8074C71.0571 88.9602 77.2209 77.6556 93.4191 79.2149C109.617 80.7741 118.709 74.3422 121.229 70.9314" stroke="#48A6A7" stroke-width="2.0051" stroke-linecap="round"/>
<path d="M132.163 24.885C129.554 25.8106 125.182 28.9645 128.559 34.1761C131.911 39.3493 134.932 34.9889 136.051 32.1042C136.068 32.0611 136.078 32.0178 136.082 31.9715C136.237 30.2473 135.853 27.139 133.089 27.982C130.289 28.8364 131.305 31.0435 132.163 32.0402" stroke="#48A6A7" stroke-width="2.0051" stroke-linecap="round"/>
<path d="M237.569 8.19604C234.96 9.12159 230.588 12.2756 233.965 17.4871C237.318 22.6603 240.338 18.2999 241.457 15.4152C241.474 15.3721 241.484 15.3288 241.488 15.2826C241.643 13.5584 241.259 10.45 238.496 11.2931C235.695 12.1474 236.711 14.3545 237.569 15.3512" stroke="#48A6A7" stroke-width="2.0051" stroke-linecap="round"/>
<path d="M239.888 319.934C229.542 300.189 229.054 269.248 225.894 243.854C197.172 245.559 179.347 244.004 170.418 235.236C158.131 223.17 161.381 209.951 161.381 198.202C172.579 206.043 168.904 195.914 214.173 195.914C256.407 198.253 268.618 259.746 269.445 290.2C270.304 303.413 269.027 315.33 263.035 319.934C250.998 329.181 242.563 325.04 239.888 319.934Z" fill="black"/>
<path d="M281.301 212.97C266.496 184.808 225.239 190.387 213.688 196.452C242.987 199.455 250.443 219.805 251.624 229.297C256.034 266.951 267.637 289.022 272.887 295.35C277.218 298.514 295.937 298.289 296.906 290.604C300.45 262.521 289.827 229.186 281.301 212.97Z" fill="black"/>
</svg>
