<svg width="361" height="306" viewBox="0 0 361 306" fill="none" xmlns="http://www.w3.org/2000/svg">
<path fill-rule="evenodd" clip-rule="evenodd" d="M172.417 71.5159C171.542 73.4183 172.417 73.3041 172.608 72.9617C173.082 72.1577 173.746 71.4823 174.542 70.9948C175.338 70.5072 176.242 70.2224 177.173 70.1651C177.929 70.1443 178.686 70.1761 179.437 70.2603C180.445 70.3934 180.674 70.5076 180.769 70.2603C180.864 70.0129 174.567 66.8169 172.417 71.5159ZM207.593 61.1478C207.617 61.072 207.611 60.9899 207.575 60.9188C207.54 60.8477 207.478 60.7933 207.403 60.7673C200.345 57.3429 195.988 65.6565 196.958 66.094C197.301 66.2272 197.244 65.9418 198.271 64.7433C202.761 59.6258 207.383 61.8326 207.593 61.1478ZM203.103 54.242C203.407 54.4703 204.283 54.0137 202.323 52.9104C199.679 51.4265 194.238 52.0352 194.257 52.7201C194.276 53.405 201.962 53.6523 203.103 54.242ZM188.474 83.8054C187.579 80.8947 185.981 66.3033 185.182 66.3984C184.383 66.4935 186.153 85.2322 188.017 85.1941C189.187 85.0841 190.335 84.8021 191.422 84.3571C191.917 84.1668 194.866 82.9683 194.599 82.4547C194.333 81.941 192.621 83.52 188.474 83.8054ZM209.324 79.8293C209.434 80.4967 209.504 81.1701 209.533 81.8459C209.876 88.3711 204.777 88.9609 204.549 89.1511C204.321 89.3414 203.997 89.9882 206.356 89.1511C214.042 86.5829 208.411 74.4075 209.324 79.8293ZM154.972 96.209C155.01 96.24 155.057 96.2569 155.105 96.2569C155.154 96.2569 155.201 96.24 155.239 96.209C155.27 96.1716 155.286 96.1245 155.286 96.0759C155.286 96.0273 155.27 95.9802 155.239 95.9427C119.55 65.9038 94.8944 45.3388 48.3236 7.30975C48.2881 7.27489 48.2402 7.25537 48.1904 7.25537C48.1407 7.25537 48.0928 7.27489 48.0573 7.30975C48.0224 7.34531 48.0029 7.39312 48.0029 7.44292C48.0029 7.49272 48.0224 7.54053 48.0573 7.57609C90.4809 43.2842 113.329 62.2131 154.972 96.209ZM91.3369 124.992L101.61 127.237C101.66 127.237 101.709 127.217 101.744 127.182C101.78 127.146 101.8 127.097 101.8 127.047C101.8 126.997 101.78 126.948 101.744 126.912C101.709 126.877 101.66 126.857 101.61 126.857L91.394 124.403C-26.7071 96.0949 -34.1455 97.4456 91.3369 124.992ZM123.887 174.778C123.917 174.744 123.933 174.7 123.933 174.655C123.933 174.609 123.917 174.565 123.887 174.531C123.866 174.486 123.829 174.451 123.783 174.433C123.737 174.416 123.685 174.416 123.64 174.436C92.6686 186.25 77.0118 191.862 5.78589 220.094C5.76197 220.102 5.73998 220.115 5.72123 220.132C5.70247 220.149 5.68733 220.17 5.67669 220.193C5.66606 220.216 5.66014 220.241 5.65929 220.266C5.65844 220.292 5.66268 220.317 5.67175 220.341C5.69284 220.391 5.73233 220.43 5.78197 220.451C5.8316 220.473 5.88754 220.474 5.93809 220.455C82.4147 191.576 115.421 178.107 123.887 174.778Z" fill="black"/>
<path fill-rule="evenodd" clip-rule="evenodd" d="M346.222 152.215C339.061 140.611 328.847 131.2 316.697 125.011C315.745 119.551 305.796 69.6127 261.793 58.1032C261.793 58.1032 264.152 2.00131 225.876 0.117931C186.801 -1.78447 171.715 19.96 171.734 19.9029C171.753 19.8458 148.638 32.9915 168.271 75.9097C172.342 102.106 189.521 117.553 216.897 110.571L219.807 116.431C217.106 116.716 195.609 119.399 171.467 136.425C115.955 175.538 94.6672 259.377 113.254 291.718C115.13 295.312 117.834 298.409 121.141 300.754C124.448 303.099 128.265 304.625 132.278 305.206C175.234 311.37 193.288 257.913 197.911 214.728C202.552 222.528 208.754 232.249 216.136 242.37C215.489 253.004 212.331 282.796 215.28 303.247C215.282 303.272 215.289 303.296 215.301 303.318C215.313 303.34 215.329 303.36 215.348 303.376C215.368 303.392 215.39 303.404 215.414 303.411C215.439 303.418 215.464 303.421 215.489 303.418C215.536 303.406 215.578 303.379 215.609 303.341C215.64 303.304 215.658 303.257 215.66 303.209C213.891 286.087 216.307 252.072 216.535 242.922C217.734 244.577 218.989 246.232 220.34 247.887C220.169 250.626 219.065 258.788 218.438 268.642C216.725 296.36 220.34 305.948 219.902 303.19C217.353 282.872 220.416 256.429 220.72 248.42C243.72 278.401 279.2 312.949 315.346 301.668C375.823 282.739 363.914 182.235 346.222 152.215ZM260.309 103.209C240.125 114.205 239.516 114.624 240.296 123.108C239.706 123.47 239.098 123.85 238.508 124.25H238.356C237.481 115.537 237.347 113.273 244.462 109.03L258.274 100.47L260.309 103.209ZM238.489 125.543H238.603L240.639 126.399C243.226 150.103 233.923 159.121 226.466 207.784C225.248 206.833 223.878 205.673 222.87 204.797C226.428 180.884 238.622 149.723 238.984 135.74C239.037 132.334 238.872 128.928 238.489 125.543ZM239.897 124.63L240.41 124.307V125.087L239.84 124.858L239.897 124.63ZM217.905 110.99C217.524 110.305 217.486 109.582 216.992 109.715C185.26 116.887 167.719 93.4118 168.557 65.9601C169.834 64.1753 171.259 62.5016 172.818 60.9568C173.303 60.4922 173.839 60.0838 174.416 59.7392C174.488 59.7095 174.547 59.6546 174.582 59.5847C174.617 59.5147 174.626 59.4345 174.606 59.3588C174.359 58.5788 170.193 60.0246 168.652 63.9055C169.298 52.4911 172.666 36.4919 185.393 27.3794C185.393 27.3794 228.52 62.8211 231.05 63.0494C233.581 63.2777 233.124 52.0155 238.869 50.1131C244.615 48.2107 250.036 50.4175 250.132 58.0651C250.022 61.0455 249.136 63.9456 247.561 66.4782C245.986 69.0108 243.777 71.0881 241.152 72.5044C246.2 82.0321 251.842 91.2326 258.046 100.051C241.457 109.868 238.869 110.533 237.576 114.909C236.315 113.762 234.931 112.761 233.448 111.922C226.333 108.079 218.552 110.381 217.905 110.99ZM218.114 111.408C218.4 111.408 226.865 108.403 237.233 115.346C237.072 116.053 236.977 116.772 236.948 117.496C230.594 113.197 223.631 113.254 219.826 115.594L218.114 111.408ZM172.19 137.433C197.625 119.189 220.226 117.097 220.226 117.097C220.93 117.097 220.226 116.298 220.226 116.107C225.4 114.205 232.078 115.879 237.081 118.257C237.105 120.101 237.225 121.943 237.443 123.774C237.1 123.622 229.148 120.312 228.939 120.749C228.73 121.187 237.252 124.877 237.443 124.954C227.931 131.098 226.827 132.963 237.671 126.095C238.004 129.254 238.138 132.431 238.07 135.607C237.709 149.133 225.971 178.982 222.566 204.379C218.548 200.776 214.779 196.905 211.285 192.793C205.749 186.496 204.398 185.469 202.514 175.995C200.859 167.605 180.313 147.459 178.24 153.166C174.873 150.16 172.799 152.31 173.332 154.897C171.258 153.984 170.078 156.248 170.288 158.702C169.184 157.884 167.396 158.569 167.777 162.336C168.29 167.282 171.829 175.995 172.856 179.001C177.726 193.117 183.148 195.381 181.112 201.164C177.916 210.219 161.251 223.726 153.642 229.643C162.336 196.979 168.385 183.985 167.796 183.776C167.206 183.567 161.213 200.555 160.186 203.922C155.01 200.076 148.963 197.568 142.584 196.622C136.205 195.676 129.691 196.321 123.622 198.5C134.618 174.892 150.293 153.147 172.19 137.433ZM123.336 199.166C129.452 197.254 135.916 196.722 142.262 197.611C148.608 198.499 154.678 200.785 160.034 204.303L159.406 206.205C146.222 197.74 132.145 197.131 122.233 201.563C122.595 200.821 122.956 199.984 123.336 199.166ZM132.506 303.532C128.754 302.982 125.187 301.545 122.1 299.342C119.014 297.139 116.496 294.232 114.757 290.862C101.44 267.691 111.237 226.941 121.967 202.248C131.593 198.443 145.347 198.767 159.292 206.662C157.256 213.587 155.81 217.734 153.147 230.042C145.728 235.864 138.518 240.81 130.661 248.381C127.65 251.094 124.962 254.145 122.652 257.475C122.621 257.512 122.604 257.56 122.604 257.608C122.604 257.657 122.621 257.704 122.652 257.741C122.687 257.776 122.735 257.796 122.785 257.796C122.835 257.796 122.882 257.776 122.918 257.741C125.264 254.474 127.977 251.487 131.003 248.838C143.73 236.891 187.866 208.659 181.968 196.294C178.164 188.418 176.09 185.945 173.617 178.849C171.753 174.151 170.165 169.349 168.861 164.466C167.662 159.045 169.298 158.417 170.421 159.901C172.323 170.231 184.803 188.437 188.551 197.568C191.223 203.099 194.176 208.49 197.397 213.72C192.489 256.048 174.416 309.753 132.506 303.532ZM314.946 300.431C293.012 307.261 271.191 296.779 251.939 280.266C217.429 250.626 191.69 201.525 189.787 197.074C186.61 189.236 171.068 164.733 171.562 157.751C172.019 151.207 180.313 166.388 184.499 172.97C184.582 173.122 184.722 173.234 184.888 173.282C185.054 173.33 185.232 173.31 185.383 173.227C185.535 173.144 185.647 173.004 185.695 172.838C185.743 172.672 185.723 172.494 185.64 172.342C182.86 167.042 179.633 161.989 175.995 157.237C173.103 153.927 173.788 148.753 181.873 159.14C188.551 167.72 188.494 170.706 189.73 170.021C189.803 169.982 189.867 169.928 189.919 169.863C189.971 169.799 190.009 169.725 190.032 169.645C190.055 169.565 190.062 169.482 190.053 169.4C190.043 169.317 190.018 169.238 189.978 169.165C187.091 163.766 183.524 158.76 179.362 154.27C178.335 148.81 199.623 167.301 201.411 176.166C201.911 179.465 202.898 182.67 204.341 185.678C206.757 190.206 217.981 201.887 223.707 206.605C248.724 227.531 267.919 227.094 293.24 238.641C302.048 242.674 309.106 247.43 312.15 253.86C312.165 253.893 312.186 253.922 312.212 253.946C312.239 253.971 312.27 253.989 312.303 254.002C312.337 254.014 312.372 254.02 312.408 254.018C312.444 254.017 312.479 254.009 312.511 253.994C312.544 253.979 312.573 253.957 312.597 253.931C312.622 253.905 312.64 253.874 312.653 253.84C312.665 253.807 312.671 253.771 312.669 253.735C312.668 253.7 312.66 253.665 312.645 253.632C309.582 247.031 302.448 242.218 293.506 237.994C290.482 236.587 287.228 235.274 283.88 234.018C284.717 227.969 285.935 221.424 287.152 215.451C299.776 212.123 313.066 212.276 325.61 215.894C338.154 219.511 349.484 226.458 358.397 235.997C355.296 265.522 342.988 291.718 314.946 300.431ZM358.511 235.864C338.175 213.72 307.908 208.583 287.19 215.28C287.419 214.157 287.704 212.864 287.932 211.817C312.131 205.863 341.2 211.646 358.702 232.135C358.724 232.15 358.751 232.159 358.778 232.159C358.805 232.159 358.832 232.15 358.854 232.135C358.759 233.41 358.645 234.646 358.511 235.864ZM288.008 211.456C293.297 187.467 297.52 178.754 296.969 178.544C296.937 178.516 296.897 178.501 296.855 178.501C296.812 178.501 296.772 178.516 296.74 178.544C290.044 197.397 285.84 211.285 283.519 233.961C258.788 224.716 246.783 223.612 226.789 207.879C234.779 160.89 244.158 149.533 241.571 126.647C249.96 130.147 252.205 130.185 241.438 125.448C241.438 125.22 241.285 124.04 241.228 123.698C250.512 117.61 249.409 117.344 241.095 122.519C240.429 115.137 240.62 114.909 260.557 103.494C263.089 106.895 265.814 110.147 268.718 113.235C268.718 113.235 294.933 116.621 310.704 122.747C324.668 129.063 337.604 139.088 345.499 152.615C353.565 166.426 361.384 199.927 358.816 231.888C341.314 210.371 311.541 205.178 288.008 211.456Z" fill="black"/>
</svg>
